<svg width="97" height="48" viewBox="0 0 97 48" fill="none" xmlns="http://www.w3.org/2000/svg">
<g clip-path="url(#clip0)">
<path d="M85.7662 0H10.9957C4.92293 0 0 4.88417 0 10.9091C0 16.934 4.92293 21.8182 10.9957 21.8182H85.7662C91.839 21.8182 96.7619 16.934 96.7619 10.9091C96.7619 4.88417 91.839 0 85.7662 0Z" fill="white"/>
<path d="M32.987 26.1818H10.9957C4.92293 26.1818 0 31.066 0 37.0909C0 43.1158 4.92293 48 10.9957 48H32.987C39.0598 48 43.9827 43.1158 43.9827 37.0909C43.9827 31.066 39.0598 26.1818 32.987 26.1818Z" fill="white"/>
<path d="M70.3723 37.0909C70.3723 31.066 65.4494 26.1818 59.3767 26.1818C53.3039 26.1818 48.381 31.066 48.381 37.0909C48.381 43.1158 53.3039 48 59.3767 48C65.4494 48 70.3723 43.1158 70.3723 37.0909Z" fill="white"/>
<path d="M96.7619 37.0909C96.7619 31.066 91.839 26.1818 85.7662 26.1818C79.6935 26.1818 74.7706 31.066 74.7706 37.0909C74.7706 43.1158 79.6935 48 85.7662 48C91.839 48 96.7619 43.1158 96.7619 37.0909Z" fill="white"/>
</g>
<defs>
<clipPath id="clip0">
<rect width="96.7619" height="48" fill="white"/>
</clipPath>
</defs>
</svg>
