<svg width="48" height="48" viewBox="0 0 48 48" fill="none" xmlns="http://www.w3.org/2000/svg">
<path d="M41 37.999H25C24.448 37.999 24 38.4471 24 38.9991C24 39.5511 24.448 39.9991 25 39.9991H41.0001C41.5521 39.9991 42.0001 39.5511 42.0001 38.9991C42.0001 38.4471 41.552 37.999 41 37.999Z" fill="white"/>
<path d="M41 41.999H25C24.448 41.999 24 42.447 24 42.999C24 43.551 24.448 43.999 25 43.999H41.0001C41.5521 43.999 42.0001 43.551 42.0001 42.999C42 42.447 41.552 41.999 41 41.999Z" fill="white"/>
<path d="M7.00003 37.999C5.346 37.999 4.00003 39.345 4.00003 40.999C4.00003 42.6531 5.346 43.999 7.00003 43.999C8.65406 43.999 10 42.6531 10 40.999C10 39.345 8.65397 37.999 7.00003 37.999ZM7.00003 41.999C6.44803 41.999 6 41.5509 6 40.9989C6 40.4469 6.44803 39.9989 7.00003 39.9989C7.55203 39.9989 8.00006 40.4469 8.00006 40.9989C7.99997 41.551 7.55203 41.999 7.00003 41.999Z" fill="white"/>
<path d="M7.00003 25.999C5.346 25.999 4.00003 27.345 4.00003 28.999C4.00003 30.6531 5.346 31.999 7.00003 31.999C8.65406 31.999 10 30.6531 10 28.999C10 27.345 8.65397 25.999 7.00003 25.999ZM7.00003 29.999C6.44803 29.999 6 29.5509 6 28.9989C6 28.4469 6.44803 27.9989 7.00003 27.9989C7.55203 27.9989 8.00006 28.4469 8.00006 28.9989C8.00006 29.5509 7.55203 29.999 7.00003 29.999Z" fill="white"/>
<path d="M41 17.999H25C24.448 17.999 24 18.447 24 18.999C24 19.551 24.448 19.999 25 19.999H41.0001C41.5521 19.999 42.0001 19.551 42.0001 18.999C42.0001 18.447 41.552 17.999 41 17.999Z" fill="white"/>
<path d="M48 18.999V14.999C48 14.039 47.714 13.149 47.242 12.3849C47.2281 12.3569 47.226 12.3249 47.2101 12.299L41.026 2.35904C40.108 0.883038 38.52 0.0010376 36.78 0.0010376H11.226C9.48403 0.0010376 7.89797 0.883038 6.97997 2.35904L0.796031 12.299C0.786 12.315 0.786 12.333 0.776062 12.351C0.292031 13.121 0 14.025 0 14.999V18.999C0 20.639 0.805969 22.087 2.03203 22.999C0.805969 23.913 0 25.359 0 26.999V30.999C0 32.639 0.805969 34.087 2.03203 34.999C0.805969 35.913 0 37.359 0 38.999V42.999C0 45.755 2.244 47.999 4.99997 47.999H42.9999C45.7559 47.999 47.9999 45.755 47.9999 42.999V38.999C47.9999 37.359 47.1939 35.9109 45.9679 34.9989C47.194 34.087 48 32.639 48 30.999V26.999C48 25.359 47.194 23.9109 45.968 22.9989C47.194 22.087 48 20.641 48 18.999ZM8.67797 3.41504C9.228 2.52901 10.1799 1.99904 11.2239 1.99904H36.7779C37.8219 1.99904 38.774 2.52901 39.3239 3.41504L43.4499 10.045C43.2999 10.0311 43.154 9.99901 42.9999 9.99901H4.99997C4.84594 9.99901 4.70194 10.031 4.55194 10.045L8.67797 3.41504ZM46 38.999V42.999C46 44.653 44.6541 45.999 43 45.999H4.99997C3.34594 45.999 1.99997 44.653 1.99997 42.999V38.999C1.99997 37.3449 3.34594 35.999 4.99997 35.999H42.9999C44.654 35.999 46 37.345 46 38.999ZM46 26.999V30.999C46 32.653 44.6541 33.999 43 33.999H4.99997C3.34594 33.999 1.99997 32.653 1.99997 30.999V26.999C1.99997 25.3449 3.34594 23.999 4.99997 23.999H42.9999C44.654 23.999 46 25.345 46 26.999ZM46 18.999C46 20.653 44.6541 21.999 43 21.999H4.99997C3.34594 21.999 1.99997 20.653 1.99997 18.999V14.999C1.99997 13.3449 3.34594 11.999 4.99997 11.999H42.9999C44.654 11.999 45.9999 13.3449 45.9999 14.999V18.999H46Z" fill="white"/>
<path d="M41 13.999H25C24.448 13.999 24 14.4471 24 14.9991C24 15.5511 24.448 15.9991 25 15.9991H41.0001C41.5521 15.9991 42.0001 15.5511 42.0001 14.9991C42.0001 14.4471 41.552 13.999 41 13.999Z" fill="white"/>
<path d="M41 29.999H25C24.448 29.999 24 30.447 24 30.999C24 31.551 24.448 31.999 25 31.999H41.0001C41.5521 31.999 42.0001 31.551 42.0001 30.999C42.0001 30.447 41.552 29.999 41 29.999Z" fill="white"/>
<path d="M41 25.999H25C24.448 25.999 24 26.4471 24 26.9991C24 27.5511 24.448 27.9991 25 27.9991H41.0001C41.5521 27.9991 42.0001 27.5511 42.0001 26.9991C42.0001 26.4471 41.552 25.999 41 25.999Z" fill="white"/>
<path d="M7.00003 13.999C5.346 13.999 4.00003 15.345 4.00003 16.999C4.00003 18.6531 5.346 19.999 7.00003 19.999C8.65406 19.999 10 18.6531 10 16.999C10 15.345 8.65397 13.999 7.00003 13.999ZM7.00003 17.999C6.44803 17.999 6 17.5509 6 16.9989C6 16.4469 6.44803 15.9989 7.00003 15.9989C7.55203 15.9989 8.00006 16.4469 8.00006 16.9989C8.00006 17.5509 7.55203 17.999 7.00003 17.999Z" fill="white"/>
</svg>
