<svg width="48" height="48" viewBox="0 0 48 48" fill="none" xmlns="http://www.w3.org/2000/svg">
<path d="M28 2.40002H20C19.5585 2.40002 19.2001 2.75843 19.2001 3.19999C19.2001 3.64155 19.5585 3.99996 20 3.99996H28C28.4416 3.99996 28.8 3.64155 28.8 3.19999C28.8 2.75843 28.4416 2.40002 28 2.40002Z" fill="white"/>
<path d="M33.6 2.40002H32.8C32.3585 2.40002 32.0001 2.75843 32.0001 3.19999C32.0001 3.64155 32.3585 3.99996 32.8 3.99996H33.6C34.0416 3.99996 34.4 3.64155 34.4 3.19999C34.4 2.75843 34.0416 2.40002 33.6 2.40002Z" fill="white"/>
<path d="M24.9936 40.8H23.0072C21.7904 40.8 20.8 41.7904 20.8 43.0072V43.3936C20.8 44.6104 21.7904 45.6 23.0065 45.6H24.9928C26.2096 45.6 27.2 44.6104 27.2 43.3936V43.0072C27.2 41.7904 26.2096 40.8 24.9936 40.8ZM25.6 43.3936C25.6 43.728 25.3281 44 24.9937 44H23.0072C22.672 44 22.4 43.728 22.4 43.3936V43.0072C22.4 42.672 22.672 42.4 23.0072 42.4H24.9928C25.3281 42.4 25.6 42.672 25.6 43.0072V43.3936V43.3936Z" fill="white"/>
<path d="M34.7088 0H13.292C11.6976 0 10.4 1.29759 10.4 2.892V45.108C10.4 46.7024 11.6976 48 13.292 48H34.7079C36.3023 48 37.5999 46.7024 37.5999 45.1088V2.892C37.6 1.29759 36.3024 0 34.7088 0ZM36 45.108C36 45.82 35.4208 46.4 34.7088 46.4H13.292C12.5792 46.4 12 45.8199 12 45.1088V2.892C12 2.17997 12.5792 1.60003 13.292 1.60003H34.7079C35.4207 1.60003 35.9999 2.18006 35.9999 2.892V45.108H36Z" fill="white"/>
<path d="M36.7999 4.79999H11.2C10.7584 4.79999 10.4 5.15839 10.4 5.59996V39.2C10.4 39.6415 10.7584 39.9999 11.2 39.9999H36.8C37.2416 39.9999 37.6 39.6415 37.6 39.2V5.59996C37.6 5.15839 37.2416 4.79999 36.7999 4.79999ZM36 38.4H12V6.40002H36V38.4Z" fill="white"/>
</svg>
