<svg width="48" height="48" viewBox="0 0 48 48" fill="none" xmlns="http://www.w3.org/2000/svg">
<g clip-path="url(#clip0)">
<path d="M24 12C21.544 12 0 11.832 0 6C0 0.168 21.544 0 24 0C26.456 0 48 0.168 48 6C48 11.832 26.456 12 24 12ZM3.176 6C4.64 7.136 11.666 9 24 9C36.334 9 43.36 7.136 44.824 6C43.36 4.864 36.334 3 24 3C11.666 3 4.64 4.864 3.176 6V6ZM45.054 6.232H45.074H45.054Z" fill="white"/>
<path d="M24 24C21.544 24 0 23.832 0 18C0 17.172 0.672 16.5 1.5 16.5C2.27 16.5 2.904 17.08 2.99 17.828C3.914 18.934 11.014 21 24 21C36.986 21 44.086 18.934 45.01 17.828C45.096 17.08 45.73 16.5 46.5 16.5C47.328 16.5 48 17.172 48 18C48 23.832 26.456 24 24 24V24ZM45 17.998C45 18 45 18 45 17.998V17.998ZM3 17.998C3 18 3 18 3 17.998V17.998Z" fill="white"/>
<path d="M24 36C21.544 36 0 35.832 0 30C0 29.172 0.672 28.5 1.5 28.5C2.27 28.5 2.904 29.08 2.99 29.828C3.914 30.934 11.014 33 24 33C36.986 33 44.086 30.934 45.01 29.828C45.096 29.08 45.73 28.5 46.5 28.5C47.328 28.5 48 29.172 48 30C48 35.832 26.456 36 24 36V36ZM45 29.998C45 30 45 30 45 29.998V29.998ZM3 29.998C3 30 3 30 3 29.998V29.998Z" fill="white"/>
<path d="M24 48C21.544 48 0 47.832 0 42V6C0 5.172 0.672 4.5 1.5 4.5C2.328 4.5 3 5.172 3 6V41.838C3.962 42.95 11.06 45 24 45C36.94 45 44.038 42.95 45 41.838V6C45 5.172 45.672 4.5 46.5 4.5C47.328 4.5 48 5.172 48 6V42C48 47.832 26.456 48 24 48Z" fill="white"/>
<path d="M10 30C11.1046 30 12 29.1046 12 28C12 26.8954 11.1046 26 10 26C8.89543 26 8 26.8954 8 28C8 29.1046 8.89543 30 10 30Z" fill="white"/>
<path d="M10 18C11.1046 18 12 17.1046 12 16C12 14.8954 11.1046 14 10 14C8.89543 14 8 14.8954 8 16C8 17.1046 8.89543 18 10 18Z" fill="white"/>
<path d="M10 42C11.1046 42 12 41.1046 12 40C12 38.8954 11.1046 38 10 38C8.89543 38 8 38.8954 8 40C8 41.1046 8.89543 42 10 42Z" fill="white"/>
</g>
<defs>
<clipPath id="clip0">
<rect width="48" height="48" fill="white"/>
</clipPath>
</defs>
</svg>
