<svg width="48" height="48" viewBox="0 0 48 48" fill="none" xmlns="http://www.w3.org/2000/svg">
<g clip-path="url(#clip0)">
<path d="M45.1304 31.4265C42.5802 28.8764 38.8216 27.9609 35.4039 29.0129L31.9773 25.5862L46.9499 10.6136C47.6271 9.93647 48 9.03609 48 8.07844C48 7.12078 47.6271 6.22031 46.9499 5.54325L42.4568 1.05009C41.7796 0.372844 40.8792 0 39.9216 0C38.9638 0 38.0635 0.372844 37.3864 1.05009L22.4138 16.0227L18.9871 12.596C20.0391 9.17841 19.1236 5.41969 16.5735 2.8695C15.1623 1.45828 13.3813 0.527531 11.4232 0.177938C9.51066 -0.163594 7.56338 0.0685312 5.79207 0.849C5.50894 0.973781 5.3056 1.23019 5.2486 1.53431C5.19169 1.83834 5.28835 2.151 5.50716 2.36981L9.97988 6.84244L6.81779 10.0044L2.34507 5.53191C2.12626 5.31309 1.81341 5.21672 1.50957 5.27334C1.20544 5.33025 0.949038 5.53359 0.82435 5.81681C0.0438813 7.58822 -0.18815 9.53541 0.153194 11.4479C0.502788 13.4061 1.43354 15.187 2.84485 16.5983C5.39494 19.1483 9.15385 20.0639 12.5713 19.0119L15.998 22.4386C15.998 22.4386 7.39735 31.0392 4.53048 33.9062C4.35966 34.077 4.30351 34.2742 4.30294 34.276L0.220038 46.5952C0.108475 46.9317 0.196319 47.3024 0.447006 47.553C0.625694 47.7316 0.865225 47.8276 1.11001 47.8276C1.20863 47.8276 1.3081 47.812 1.40476 47.78L13.7121 43.7011C13.9056 43.6459 14.0938 43.4695 14.0938 43.4695L25.5613 32.002L28.9881 35.4288C27.9361 38.8463 28.8516 42.6052 31.4017 45.1553C32.8129 46.5666 34.5939 47.4972 36.552 47.8469C37.1252 47.9493 37.7013 48.0001 38.2749 48.0001C39.6157 48.0001 40.9425 47.7224 42.183 47.1758C42.4661 47.0511 42.6695 46.7947 42.7265 46.4905C42.7834 46.1865 42.6867 45.8738 42.4679 45.655L37.9952 41.1824L41.1573 38.0203L45.6299 42.4929C45.8487 42.7117 46.1614 42.8089 46.4654 42.7515C46.7695 42.6946 47.0259 42.4912 47.1506 42.208C47.9311 40.4366 48.1632 38.4894 47.8218 36.5769C47.4724 34.6187 46.5416 32.8378 45.1304 31.4265V31.4265ZM38.7122 2.37591C39.0353 2.05284 39.4647 1.87491 39.9216 1.87491C40.3784 1.87491 40.8079 2.05275 41.1309 2.37591L45.6241 6.86906C45.9471 7.19203 46.125 7.6215 46.125 8.07844C46.125 8.53528 45.9471 8.96484 45.624 9.28781L42.5821 12.3297L35.6703 5.41781L38.7122 2.37591ZM13.4837 17.2728C13.3046 17.0937 13.0649 16.9982 12.8206 16.9982C12.7092 16.9982 12.5967 17.0181 12.4888 17.0589C9.61088 18.1487 6.34576 17.4476 4.17048 15.2723C2.2081 13.31 1.45285 10.5417 2.0836 7.92206L6.15469 11.9933C6.52079 12.3593 7.11441 12.3593 7.48051 11.9933L11.9684 7.50534C12.3345 7.13925 12.3345 6.54563 11.9684 6.17953L7.89732 2.10844C10.5168 1.4775 13.2851 2.23294 15.2476 4.19531C17.4229 6.37059 18.1241 9.63572 17.0342 12.5136C16.9036 12.8585 16.9872 13.2478 17.2479 13.5085L21.0878 17.3484L17.3236 21.1127L13.4837 17.2728ZM2.58704 45.413L3.94313 41.321L6.67885 44.0567L2.58704 45.413ZM8.67057 43.3968L4.60323 39.3294L5.60504 36.3066L11.6933 42.3949L8.67057 43.3968ZM13.431 41.4808L10.638 38.6878L19.8146 29.5112C20.1807 29.1451 20.1807 28.5515 19.8146 28.1854C19.4486 27.8194 18.8549 27.8194 18.4888 28.1854L9.31219 37.362L6.5191 34.569L34.3445 6.74362L34.4201 6.81928L37.1374 9.53662L24.4821 22.192C24.116 22.5581 24.116 23.1517 24.4821 23.5178C24.6651 23.7008 24.9051 23.7924 25.145 23.7924C25.3849 23.7924 25.6249 23.7008 25.8079 23.5178L38.4632 10.8624L41.2562 13.6555L13.431 41.4808ZM45.8915 40.1026L41.8204 36.0315C41.6446 35.8557 41.4061 35.7569 41.1575 35.7569C40.9089 35.7569 40.6704 35.8557 40.4946 36.0315L36.0068 40.5194C35.6407 40.8855 35.6407 41.4791 36.0068 41.8452L40.0779 45.9164C37.458 46.5471 34.6899 45.7919 32.7276 43.8295C30.5523 41.6543 29.851 38.3891 30.941 35.5112C31.0716 35.1663 30.9879 34.7769 30.7271 34.5162L26.8872 30.6763L30.6515 26.9121L34.4915 30.7521C34.7522 31.0128 35.1414 31.0966 35.4864 30.9658C38.3641 29.8759 41.6294 30.5771 43.8047 32.7524C45.7671 34.7148 46.5223 37.483 45.8915 40.1026V40.1026Z" fill="white"/>
<path d="M22.1604 26.777C21.7685 26.777 21.4107 26.5229 21.2787 26.1549C21.1486 25.7919 21.26 25.3748 21.554 25.1248C21.8611 24.8637 22.3126 24.833 22.6551 25.0434C22.9837 25.2453 23.1537 25.6454 23.0791 26.0223C22.9935 26.455 22.6017 26.777 22.1604 26.777V26.777Z" fill="white"/>
</g>
<defs>
<clipPath id="clip0">
<rect width="48" height="48" fill="white"/>
</clipPath>
</defs>
</svg>
