<svg width="42" height="42" viewBox="0 0 42 42" fill="none" xmlns="http://www.w3.org/2000/svg">
<rect width="42" height="42" rx="4" fill="#DE4C36"/>
<g clip-path="url(#clip0)">
<path d="M36.3947 19.5734L22.4227 5.60276C21.6173 4.79876 20.3133 4.79876 19.5053 5.60276L16.6107 8.50276L20.2907 12.1828C21.1507 11.8961 22.1293 12.0894 22.8093 12.7708C23.4973 13.4574 23.6867 14.4481 23.3933 15.3041L26.9373 18.8508C27.7973 18.5534 28.7867 18.7468 29.4707 19.4308C30.432 20.3908 30.432 21.9428 29.4707 22.9028C28.512 23.8614 26.9627 23.8614 26.004 22.9028C25.2853 22.1814 25.1053 21.1201 25.4653 20.2414L22.1467 16.9401V25.6401C22.3813 25.7548 22.6027 25.9108 22.7973 26.1041C23.748 27.0654 23.748 28.6148 22.7973 29.5708C21.8387 30.5321 20.2787 30.5321 19.3187 29.5708C18.36 28.6121 18.36 27.0654 19.3187 26.1068C19.5613 25.8668 19.8347 25.6854 20.1253 25.5654V16.7801C19.836 16.6588 19.56 16.4841 19.3253 16.2454C18.5987 15.5188 18.424 14.4561 18.7973 13.5668L15.1813 9.93342L5.6 19.5081C4.8 20.3148 4.8 21.6201 5.6 22.4268L19.5733 36.3961C20.3787 37.2014 21.6827 37.2014 22.488 36.3961L36.3947 22.4894C37.2013 21.6854 37.2013 20.3801 36.3947 19.5734Z" fill="white"/>
</g>
<defs>
<clipPath id="clip0">
<rect width="32" height="32" fill="white" transform="translate(5 5)"/>
</clipPath>
</defs>
</svg>
