<svg width="58" height="58" viewBox="0 0 58 58" fill="none" xmlns="http://www.w3.org/2000/svg">
<g filter="url(#filter0_d)">
<rect x="9" y="4" width="48" height="48" rx="4" fill="#DE4C36"/>
<g clip-path="url(#clip0)">
<path d="M49.4971 26.4724L34.5274 11.5038C33.666 10.6416 32.2677 10.6416 31.4051 11.5038L28.2966 14.6123L32.2398 18.5555C33.1562 18.2459 34.2069 18.4535 34.9375 19.1841C35.6714 19.9191 35.8776 20.9789 35.5604 21.8983L39.3607 25.6985C40.2801 25.3818 41.3409 25.5868 42.0753 26.3223C43.1015 27.3481 43.1015 29.0109 42.0753 30.0375C41.0486 31.0641 39.3859 31.0641 38.3589 30.0375C37.587 29.2648 37.3962 28.131 37.7871 27.18L34.243 23.6359L34.2426 32.9624C34.4928 33.0865 34.7291 33.2516 34.9375 33.4593C35.9637 34.4852 35.9637 36.1479 34.9375 37.1753C33.9108 38.2015 32.2473 38.2015 31.2222 37.1753C30.196 36.1479 30.196 34.4852 31.2222 33.4593C31.4758 33.2061 31.7692 33.0146 32.0822 32.886V23.4726C31.7692 23.3447 31.4762 23.1544 31.2222 22.8993C30.4446 22.1229 30.2577 20.9819 30.6561 20.0271L26.7693 16.1396L16.505 26.4031C15.6424 27.2661 15.6424 28.6644 16.505 29.5266L31.4747 44.4955C32.3365 45.3578 33.7344 45.3578 34.5974 44.4955L49.4971 29.5962C50.3593 28.7336 50.3593 27.3346 49.4971 26.4724Z" fill="white"/>
</g>
</g>
<defs>
<filter id="filter0_d" x="0" y="0" width="58" height="58" filterUnits="userSpaceOnUse" color-interpolation-filters="sRGB">
<feFlood flood-opacity="0" result="BackgroundImageFix"/>
<feColorMatrix in="SourceAlpha" type="matrix" values="0 0 0 0 0 0 0 0 0 0 0 0 0 0 0 0 0 0 127 0"/>
<feOffset dx="-4" dy="1"/>
<feGaussianBlur stdDeviation="2.5"/>
<feColorMatrix type="matrix" values="0 0 0 0 0 0 0 0 0 0 0 0 0 0 0 0 0 0 0.3 0"/>
<feBlend mode="normal" in2="BackgroundImageFix" result="effect1_dropShadow"/>
<feBlend mode="normal" in="SourceGraphic" in2="effect1_dropShadow" result="shape"/>
</filter>
<clipPath id="clip0">
<rect width="34.2857" height="34.2857" fill="white" transform="translate(15.8574 10.8571)"/>
</clipPath>
</defs>
</svg>
