<svg width="58" height="58" viewBox="0 0 58 58" fill="none" xmlns="http://www.w3.org/2000/svg">
<g filter="url(#filter0_d)">
<rect x="9" y="4" width="48" height="48" rx="4" fill="white"/>
<g clip-path="url(#clip0)">
<rect width="37.7143" height="22.8571" transform="translate(14.7141 16.5714)" fill="white"/>
<path d="M23.631 22.5865H30.7292V23.1545H24.2817V27.4298H30.3447V27.9979H24.2817V32.6917H30.8031V33.2597H23.631V22.5865ZM31.365 22.5865H32.1192L35.4612 27.2803L38.8772 22.5865L43.5235 16.6243L35.8901 27.7736L39.8236 33.2597H39.0399L35.4612 28.2669L31.8678 33.2597H31.0988L35.062 27.7736L31.365 22.5865ZM40.1046 23.1545V22.5865H48.1935V23.1545H44.467V33.2597H43.8163V23.1545H40.1046Z" fill="black"/>
<path d="M14.7439 22.5865H15.5572L26.7725 39.4844L22.1378 33.2597L15.4241 23.3937L15.3946 33.2597H14.7439V22.5865Z" fill="black"/>
<path d="M48.1279 32.5203C48.2624 32.5203 48.3605 32.4166 48.3605 32.2825C48.3605 32.1485 48.2624 32.0448 48.1279 32.0448C47.995 32.0448 47.8953 32.1485 47.8953 32.2825C47.8953 32.4166 47.995 32.5203 48.1279 32.5203ZM48.7673 31.8948C48.7673 32.2905 49.0505 32.549 49.4636 32.549C49.9035 32.549 50.1694 32.2825 50.1694 31.8198V30.1908H49.8149V31.8183C49.8149 32.0751 49.6867 32.2123 49.4604 32.2123C49.2578 32.2123 49.1202 32.0847 49.1154 31.8948H48.7673ZM50.6331 31.8741C50.6584 32.2857 50.9986 32.549 51.5051 32.549C52.0463 32.549 52.385 32.273 52.385 31.8326C52.385 31.4864 52.1919 31.2949 51.7235 31.1848L51.4718 31.1226C51.1743 31.0524 51.054 30.9583 51.054 30.7939C51.054 30.5865 51.2408 30.4509 51.5209 30.4509C51.7868 30.4509 51.9703 30.5833 52.0036 30.7955H52.3486C52.328 30.4078 51.9893 30.135 51.5256 30.135C51.0271 30.135 50.6948 30.4078 50.6948 30.8179C50.6948 31.1561 50.8831 31.3571 51.2962 31.4545L51.5905 31.5263C51.8928 31.5981 52.0257 31.7034 52.0257 31.8789C52.0257 32.0831 51.8168 32.2315 51.532 32.2315C51.2265 32.2315 51.0145 32.0927 50.9844 31.8741H50.6331Z" fill="black"/>
</g>
</g>
<defs>
<filter id="filter0_d" x="0" y="0" width="58" height="58" filterUnits="userSpaceOnUse" color-interpolation-filters="sRGB">
<feFlood flood-opacity="0" result="BackgroundImageFix"/>
<feColorMatrix in="SourceAlpha" type="matrix" values="0 0 0 0 0 0 0 0 0 0 0 0 0 0 0 0 0 0 127 0"/>
<feOffset dx="-4" dy="1"/>
<feGaussianBlur stdDeviation="2.5"/>
<feColorMatrix type="matrix" values="0 0 0 0 0 0 0 0 0 0 0 0 0 0 0 0 0 0 0.3 0"/>
<feBlend mode="normal" in2="BackgroundImageFix" result="effect1_dropShadow"/>
<feBlend mode="normal" in="SourceGraphic" in2="effect1_dropShadow" result="shape"/>
</filter>
<clipPath id="clip0">
<rect width="37.7143" height="22.8571" fill="white" transform="translate(14.7141 16.5714)"/>
</clipPath>
</defs>
</svg>
