<svg width="58" height="58" viewBox="0 0 58 58" fill="none" xmlns="http://www.w3.org/2000/svg">
<g filter="url(#filter0_d)">
<rect x="9" y="4" width="48" height="48" rx="4" fill="#539E43"/>
<g clip-path="url(#clip0)">
<path d="M33.0002 47.3565C32.4678 47.3565 31.9709 47.2139 31.5095 46.9645L26.789 44.1496C26.0792 43.7577 26.4341 43.6152 26.6471 43.5439C27.6054 43.2232 27.7828 43.1519 28.7766 42.5818C28.8831 42.5106 29.0251 42.5462 29.1315 42.6175L32.7518 44.791C32.8937 44.8623 33.0712 44.8623 33.1777 44.791L47.3392 36.5601C47.4811 36.4888 47.5521 36.3463 47.5521 36.1681V19.7419C47.5521 19.5638 47.4811 19.4213 47.3392 19.35L33.1777 11.1547C33.0357 11.0835 32.8583 11.0835 32.7518 11.1547L18.5903 19.35C18.4483 19.4213 18.3773 19.5994 18.3773 19.7419V36.1681C18.3773 36.3107 18.4483 36.4888 18.5903 36.5601L22.459 38.8049C24.553 39.8738 25.8662 38.6267 25.8662 37.3796V21.1672C25.8662 20.9534 26.0437 20.7396 26.2921 20.7396H28.1023C28.3152 20.7396 28.5282 20.9178 28.5282 21.1672V37.3796C28.5282 40.1945 27.002 41.8336 24.3401 41.8336C23.5237 41.8336 22.8849 41.8336 21.0748 40.9428L17.348 38.8049C16.4252 38.2704 15.8574 37.2727 15.8574 36.2038V19.7776C15.8574 18.7086 16.4252 17.7109 17.348 17.1765L31.5095 8.94556C32.3968 8.44672 33.6036 8.44672 34.4909 8.94556L48.6524 17.1765C49.5752 17.7109 50.1431 18.7086 50.1431 19.7776V36.2038C50.1431 37.2727 49.5752 38.2704 48.6524 38.8049L34.4909 47.0358C34.0295 47.2496 33.4971 47.3565 33.0002 47.3565ZM37.3658 36.0612C31.1546 36.0612 29.8769 33.2107 29.8769 30.7878C29.8769 30.574 30.0543 30.3602 30.3028 30.3602H32.1484C32.3614 30.3602 32.5388 30.5027 32.5388 30.7165C32.8228 32.605 33.6391 33.5314 37.4013 33.5314C40.3827 33.5314 41.6604 32.8544 41.6604 31.251C41.6604 30.3245 41.3055 29.6475 36.6559 29.1843C32.7873 28.7924 30.3738 27.9372 30.3738 24.8373C30.3738 21.9511 32.7873 20.2408 36.8334 20.2408C41.3764 20.2408 43.6125 21.8086 43.8964 25.2292C43.8964 25.3361 43.8609 25.443 43.7899 25.5499C43.7189 25.6212 43.6125 25.6924 43.506 25.6924H41.6604C41.4829 25.6924 41.3055 25.5499 41.27 25.3717C40.8441 23.412 39.7438 22.7706 36.8334 22.7706C33.5681 22.7706 33.1777 23.9108 33.1777 24.766C33.1777 25.7993 33.6391 26.12 38.0402 26.6901C42.4057 27.2602 44.4643 28.0798 44.4643 31.1441C44.4288 34.2797 41.8733 36.0612 37.3658 36.0612Z" fill="white"/>
</g>
</g>
<defs>
<filter id="filter0_d" x="0" y="0" width="58" height="58" filterUnits="userSpaceOnUse" color-interpolation-filters="sRGB">
<feFlood flood-opacity="0" result="BackgroundImageFix"/>
<feColorMatrix in="SourceAlpha" type="matrix" values="0 0 0 0 0 0 0 0 0 0 0 0 0 0 0 0 0 0 127 0"/>
<feOffset dx="-4" dy="1"/>
<feGaussianBlur stdDeviation="2.5"/>
<feColorMatrix type="matrix" values="0 0 0 0 0 0 0 0 0 0 0 0 0 0 0 0 0 0 0.3 0"/>
<feBlend mode="normal" in2="BackgroundImageFix" result="effect1_dropShadow"/>
<feBlend mode="normal" in="SourceGraphic" in2="effect1_dropShadow" result="shape"/>
</filter>
<clipPath id="clip0">
<rect width="34.2857" height="38.8571" fill="white" transform="translate(15.8574 8.57143)"/>
</clipPath>
</defs>
</svg>
