<svg width="42" height="42" viewBox="0 0 42 42" fill="none" xmlns="http://www.w3.org/2000/svg">
<rect width="42" height="42" rx="4" fill="#F4F4F4"/>
<path d="M25.8572 18.1867C25.25 17.5906 19.9071 16.16 15.5357 15.2063C15.5357 18.5443 15.6571 22.1208 16.1429 22.7169C16.75 23.313 22.0929 24.7436 26.4643 25.6973C26.4643 22.4785 26.3429 18.7828 25.8572 18.1867Z" fill="#004576"/>
<path d="M32.4143 26.7702C30.35 26.651 28.4071 26.2934 26.4643 25.6973C26.4643 28.5585 26.2214 31.1812 25.8571 31.5389C24.7643 32.0157 10.5571 28.5585 9.58571 27.6048C8.73571 26.4126 8.73571 14.9679 9.58571 14.1334C11.65 14.2526 13.5929 14.6102 15.5357 15.2063C15.5357 12.3451 15.7786 9.72237 16.1429 9.36472C17.2357 9.00707 31.3214 12.4643 32.4143 13.4181C33.2643 14.6102 33.2643 26.055 32.4143 26.7702ZM21 4C11.65 4 4 11.5106 4 20.6902C4 29.8699 11.65 37.3805 21 37.3805C30.35 37.3805 38 29.8699 38 20.6902C38 11.5106 30.4714 4 21 4Z" fill="#004576"/>
</svg>
