<svg width="58" height="58" viewBox="0 0 58 58" fill="none" xmlns="http://www.w3.org/2000/svg">
<g filter="url(#filter0_d)">
<rect x="9" y="4" width="48" height="48" rx="4" fill="white"/>
<g clip-path="url(#clip0)">
<path d="M46.5044 30.1995C45.3089 30.2058 44.27 30.4937 43.4 30.9193C43.0808 30.2872 42.7616 29.7239 42.7053 29.3108C42.6427 28.8289 42.5676 28.5347 42.6427 27.9589C42.7178 27.3831 43.0558 26.5632 43.0495 26.5006C43.0433 26.438 42.9744 26.1438 42.2859 26.1376C41.5975 26.1313 41.0029 26.269 40.934 26.4505C40.8652 26.632 40.7338 27.0451 40.6461 27.4707C40.5272 28.0966 39.2692 30.331 38.5494 31.5014C38.3179 31.0445 38.1176 30.6439 38.0738 30.3247C38.0112 29.8428 37.9361 29.5486 38.0112 28.9728C38.0863 28.397 38.4243 27.5771 38.418 27.5145C38.4117 27.4519 38.3429 27.1578 37.6544 27.1515C36.966 27.1453 36.3714 27.2829 36.3025 27.4645C36.2337 27.646 36.1586 28.0716 36.0146 28.4846C35.8707 28.8977 34.1996 32.628 33.7615 33.5918C33.5361 34.0863 33.3421 34.4806 33.2044 34.7497C33.2044 34.7497 33.1982 34.7685 33.1794 34.7998C33.0605 35.0313 32.9916 35.1565 32.9916 35.1565C32.9916 35.1565 32.9916 35.1565 32.9916 35.1628C32.8978 35.3318 32.7976 35.4882 32.7475 35.4882C32.71 35.4882 32.6411 35.0376 32.7601 34.4242C33.0104 33.1287 33.605 31.1133 33.5987 31.0445C33.5987 31.0069 33.7114 30.6564 33.2107 30.4749C32.7225 30.2934 32.5473 30.5939 32.5034 30.5939C32.4596 30.5939 32.4283 30.7003 32.4283 30.7003C32.4283 30.7003 32.9729 28.4346 31.3894 28.4346C30.4005 28.4346 29.0361 29.5173 28.3601 30.4937C27.9345 30.7253 27.027 31.2197 26.0569 31.7517C25.6876 31.9583 25.3058 32.1648 24.9491 32.3588C24.9241 32.3338 24.899 32.3025 24.874 32.2775C22.9588 30.2308 19.4163 28.7851 19.5665 26.0374C19.6229 25.036 19.9671 22.4073 26.3698 19.2153C31.6397 16.6179 35.8331 17.3377 36.5591 18.9337C37.5981 21.2119 34.3122 25.4429 28.8671 26.0562C26.7892 26.2878 25.7001 25.4867 25.4248 25.1862C25.1369 24.8733 25.093 24.8545 24.9866 24.9171C24.8114 25.011 24.9241 25.2926 24.9866 25.4554C25.1494 25.881 25.8191 26.632 26.9519 27.0013C27.9533 27.3268 30.388 27.5083 33.3359 26.3692C36.6343 25.0924 39.2129 21.5436 38.4556 18.5707C37.6982 15.554 32.6912 14.5588 27.9533 16.2424C25.1369 17.2438 22.0826 18.821 19.8857 20.8739C17.2758 23.3149 16.8627 25.4366 17.0317 26.3253C17.6388 29.4798 21.9887 31.5327 23.7286 33.0536C23.641 33.1036 23.5596 33.1474 23.4908 33.185C22.6208 33.6169 19.3037 35.3505 18.4775 37.1844C17.5387 39.2623 18.6277 40.7519 19.3475 40.9522C21.5819 41.5718 23.8788 40.4577 25.1118 38.6176C26.3448 36.7775 26.1946 34.3867 25.625 33.2914C25.6188 33.2789 25.6125 33.2664 25.6 33.2538C25.8253 33.1224 26.0569 32.9847 26.2822 32.8533C26.7266 32.5904 27.1647 32.3463 27.5402 32.146C27.3274 32.7281 27.171 33.4228 27.0959 34.4242C27.002 35.6009 27.4839 37.128 28.116 37.7289C28.3977 37.9918 28.7294 37.998 28.9422 37.998C29.6807 37.998 30.0124 37.3847 30.3817 36.6586C30.8324 35.7699 31.2392 34.7372 31.2392 34.7372C31.2392 34.7372 30.7322 37.5286 32.1091 37.5286C32.6098 37.5286 33.1168 36.8777 33.3421 36.546C33.3421 36.5522 33.3421 36.5522 33.3421 36.5522C33.3421 36.5522 33.3546 36.5335 33.3797 36.4896C33.4298 36.4083 33.461 36.3582 33.461 36.3582C33.461 36.3582 33.461 36.3519 33.461 36.3457C33.6613 35.9952 34.112 35.2003 34.7817 33.8797C35.6454 32.1773 36.4778 30.0493 36.4778 30.0493C36.4778 30.0493 36.5529 30.5688 36.8095 31.4325C36.9597 31.9395 37.2726 32.4965 37.523 33.0348C37.3227 33.3164 37.1975 33.4729 37.1975 33.4729C37.1975 33.4729 37.1975 33.4729 37.2038 33.4792C37.0411 33.692 36.8658 33.9235 36.6718 34.1488C35.9896 34.9625 35.176 35.8951 35.0633 36.1642C34.9319 36.4834 34.9632 36.715 35.2135 36.9027C35.395 37.0404 35.7205 37.0592 36.0522 37.0404C36.6655 36.9966 37.0974 36.8464 37.3102 36.7525C37.6419 36.6336 38.03 36.4521 38.393 36.183C39.0627 35.6885 39.4695 34.9813 39.4319 34.0487C39.4132 33.5355 39.2442 33.0223 39.0376 32.5403C39.1002 32.4527 39.1565 32.3651 39.2191 32.2775C40.2769 30.7315 41.0968 29.0354 41.0968 29.0354C41.0968 29.0354 41.1719 29.5549 41.4285 30.4186C41.5537 30.8567 41.8103 31.3324 42.0356 31.7955C41.0404 32.6029 40.4271 33.5417 40.208 34.1551C39.8137 35.2942 40.1204 35.8074 40.7025 35.9263C40.9653 35.9827 41.3409 35.8575 41.6162 35.7386C41.9667 35.6259 42.3798 35.4319 42.7741 35.144C43.4438 34.6496 44.0885 33.9611 44.0509 33.0285C44.0321 32.6029 43.9195 32.1836 43.763 31.7768C44.608 31.4263 45.697 31.2322 47.0864 31.395C50.0656 31.7455 50.6539 33.6043 50.5413 34.3867C50.4286 35.169 49.8028 35.5946 49.5962 35.7261C49.3897 35.8575 49.3208 35.9013 49.3396 35.9952C49.3646 36.1329 49.4648 36.1266 49.64 36.1016C49.8841 36.0578 51.2047 35.4695 51.2611 34.0299C51.3549 32.1898 49.6025 30.1808 46.5044 30.1995ZM23.5221 37.9479C22.5332 39.0245 21.1563 39.4313 20.5617 39.087C19.9233 38.7178 20.1736 37.128 21.3878 35.9889C22.1264 35.2942 23.0777 34.6496 23.7098 34.2552C23.8538 34.1676 24.0666 34.0424 24.3232 33.886C24.367 33.8609 24.3921 33.8484 24.3921 33.8484C24.4421 33.8171 24.4922 33.7858 24.5423 33.7545C24.9866 35.3818 24.561 36.8151 23.5221 37.9479ZM30.7197 33.0536C30.3755 33.8922 29.6557 36.039 29.2176 35.9201C28.8421 35.8199 28.6105 34.1927 29.1425 32.5841C29.4116 31.7768 29.9812 30.8129 30.3129 30.4374C30.8511 29.8365 31.4457 29.6363 31.5897 29.8803C31.7712 30.1995 30.9325 32.5278 30.7197 33.0536ZM36.6593 35.8951C36.5153 35.9702 36.3776 36.0202 36.3151 35.9827C36.2712 35.9576 36.3776 35.8575 36.3776 35.8575C36.3776 35.8575 37.1224 35.0564 37.4166 34.6934C37.5856 34.4806 37.7859 34.2302 37.9987 33.9486C37.9987 33.9736 37.9987 34.0049 37.9987 34.0299C37.9987 34.9875 37.0724 35.6322 36.6593 35.8951ZM41.2407 34.8498C41.1343 34.7747 41.1531 34.5244 41.5099 33.742C41.6475 33.4353 41.973 32.9221 42.53 32.4277C42.5926 32.628 42.6364 32.822 42.6302 33.0035C42.6239 34.2114 41.7602 34.6621 41.2407 34.8498Z" fill="#CD6799"/>
</g>
</g>
<defs>
<filter id="filter0_d" x="0" y="0" width="58" height="58" filterUnits="userSpaceOnUse" color-interpolation-filters="sRGB">
<feFlood flood-opacity="0" result="BackgroundImageFix"/>
<feColorMatrix in="SourceAlpha" type="matrix" values="0 0 0 0 0 0 0 0 0 0 0 0 0 0 0 0 0 0 127 0"/>
<feOffset dx="-4" dy="1"/>
<feGaussianBlur stdDeviation="2.5"/>
<feColorMatrix type="matrix" values="0 0 0 0 0 0 0 0 0 0 0 0 0 0 0 0 0 0 0.3 0"/>
<feBlend mode="normal" in2="BackgroundImageFix" result="effect1_dropShadow"/>
<feBlend mode="normal" in="SourceGraphic" in2="effect1_dropShadow" result="shape"/>
</filter>
<clipPath id="clip0">
<rect width="34.2857" height="25.6986" fill="white" transform="translate(17.0002 15.4286)"/>
</clipPath>
</defs>
</svg>
