<svg width="58" height="58" viewBox="0 0 58 58" fill="none" xmlns="http://www.w3.org/2000/svg">
<g filter="url(#filter0_d)">
<rect x="9" y="4" width="48" height="48" rx="4" fill="white"/>
<g clip-path="url(#clip0)">
<path d="M39.9146 22.9682L35.6238 24.3446L31.8909 25.963L30.8466 26.2338C30.5806 26.4823 30.3018 26.734 30.0001 26.9889C29.6693 27.2692 29.3612 27.5241 29.1245 27.7089C28.8618 27.9128 28.4726 28.2951 28.2748 28.5372C27.9796 28.9004 27.7461 29.2858 27.6456 29.5822C27.4672 30.1174 27.5548 30.659 27.8986 31.1592C28.3396 31.7964 29.2186 32.4463 30.2434 32.8891C30.7656 33.1153 31.6444 33.4052 32.306 33.5677C33.4054 33.8417 35.533 34.138 36.7038 34.1826C36.9405 34.1922 37.2583 34.1922 37.2713 34.1826C37.2973 34.1666 37.4789 33.8258 37.6897 33.4021C38.4097 31.9588 38.9286 30.6048 39.2107 29.4484C39.3794 28.7475 39.5123 27.814 39.5999 26.7086C39.6226 26.3995 39.6323 25.3641 39.6128 25.0136C39.5836 24.4402 39.5317 23.9751 39.4507 23.5195C39.4377 23.4526 39.4345 23.392 39.441 23.3889C39.4539 23.3793 39.4928 23.3666 40.0215 23.2168L39.9145 22.9683V22.9683H39.9146V22.9682ZM38.9351 23.5322C38.974 23.5322 39.0778 24.5102 39.1037 25.1283C39.1102 25.2589 39.1069 25.3449 39.1005 25.3449C39.0746 25.3449 38.5524 25.0423 38.1795 24.8129C37.8551 24.6122 37.239 24.2108 37.1417 24.1343C37.1092 24.112 37.1124 24.1089 37.3784 24.0196C37.8291 23.8699 38.8995 23.5322 38.9351 23.5322ZM36.7492 24.2395C36.7784 24.2395 36.853 24.2808 37.0313 24.3892C37.6994 24.8001 38.6076 25.2972 38.9967 25.4629C39.1167 25.5138 39.1296 25.4947 38.854 25.6795C38.2638 26.0745 37.5275 26.4632 36.6259 26.8551C36.467 26.9252 36.3341 26.9793 36.3308 26.9793C36.3244 26.9793 36.3438 26.8997 36.3697 26.8041C36.587 26.0108 36.7102 25.2079 36.7168 24.5644C36.72 24.2458 36.72 24.2458 36.7492 24.2363C36.7427 24.2395 36.7459 24.2395 36.7492 24.2395ZM36.2984 24.4083C36.3178 24.4274 36.3049 25.141 36.2789 25.3354C36.2205 25.8005 36.1297 26.2338 35.9806 26.7213C35.9449 26.8391 35.9124 26.9379 35.906 26.9442C35.893 26.9601 35.4487 26.5332 35.3027 26.3676C35.0497 26.0808 34.852 25.7941 34.706 25.5138C34.6314 25.3704 34.5147 25.0901 34.5244 25.0805C34.5763 25.0455 36.2854 24.3956 36.2984 24.4083ZM34.1773 25.227C34.1806 25.227 34.1838 25.227 34.1871 25.2302C34.1936 25.2366 34.2163 25.2876 34.2358 25.3449C34.3395 25.6221 34.573 26.0299 34.7741 26.2911C34.9946 26.5779 35.2833 26.8837 35.5232 27.0844C35.6011 27.1481 35.6724 27.2086 35.6821 27.2182C35.7016 27.2373 35.7081 27.2341 35.1794 27.4317C34.5666 27.6611 33.8984 27.8904 33.133 28.1325C32.9502 28.1904 32.7675 28.2489 32.585 28.3078C32.5558 28.3174 32.5655 28.3014 32.6498 28.1708C33.0293 27.5878 33.6065 26.4441 33.9309 25.6348C33.986 25.4946 34.0411 25.3545 34.0509 25.3226C34.0639 25.278 34.0801 25.2621 34.1222 25.2398C34.1449 25.2335 34.1676 25.227 34.1773 25.227ZM33.5288 25.4915C33.5385 25.4979 33.3731 25.8387 33.2109 26.1509C32.8963 26.7531 32.5525 27.3457 32.092 28.0657C32.0142 28.1899 31.9396 28.3046 31.9299 28.3174C31.9137 28.3397 31.9071 28.3333 31.8553 28.2345C31.745 28.0211 31.6542 27.7471 31.6055 27.4954C31.5569 27.2469 31.5666 26.8136 31.6218 26.546C31.6639 26.3485 31.6607 26.3517 31.758 26.3039C32.1731 26.0968 33.5158 25.4787 33.5288 25.4915ZM39.1232 25.7145V25.8483C39.1232 26.5588 39.0454 27.5336 38.9318 28.2441C38.9124 28.3684 38.8961 28.4703 38.8929 28.4735C38.8929 28.4735 38.7989 28.448 38.6886 28.4161C38.2022 28.2664 37.6735 28.0466 37.1967 27.7885C36.8821 27.6197 36.4249 27.3425 36.4378 27.3297C36.441 27.3266 36.5773 27.2565 36.7362 27.1736C37.3719 26.8487 37.9816 26.4982 38.5102 26.151C38.7081 26.0203 39.0064 25.8101 39.0713 25.7527L39.1232 25.7145ZM31.0801 26.6575C31.0931 26.6575 31.0898 26.683 31.0704 26.7977C31.0574 26.8805 31.0412 27.0334 31.0348 27.1385C31.0087 27.6037 31.0866 27.9478 31.3201 28.4193C31.385 28.5499 31.4369 28.6582 31.4336 28.6614C31.4109 28.6805 29.264 29.2986 28.5893 29.4802C28.3883 29.5343 28.2132 29.5821 28.2001 29.5853C28.1775 29.5917 28.1742 29.5885 28.184 29.5343C28.2585 29.066 28.6218 28.4543 29.1277 27.9382C29.465 27.5941 29.7342 27.3934 30.1947 27.1353C30.5255 26.9506 31.0347 26.6734 31.0736 26.6607C31.0737 26.6575 31.0769 26.6575 31.0801 26.6575ZM36.1395 27.5463C36.1427 27.5432 36.2205 27.5846 36.3146 27.6388C37.0086 28.0338 37.9751 28.4002 38.7988 28.5881L38.8735 28.6041L38.7697 28.6614C38.3383 28.8972 36.9211 29.477 35.4714 30.009C35.2606 30.0855 35.053 30.162 35.014 30.1779C34.9751 30.1938 34.9394 30.2034 34.9394 30.2002C34.9394 30.197 34.9979 30.0855 35.0724 29.9485C35.4778 29.203 35.8865 28.295 36.094 27.6642C36.12 27.6037 36.1362 27.5496 36.1395 27.5463ZM35.6238 27.712C35.6271 27.7153 35.6011 27.7821 35.5687 27.8586C35.2865 28.5308 34.9168 29.2636 34.4433 30.0855C34.3233 30.2958 34.2228 30.4647 34.2195 30.4647C34.2163 30.4647 34.119 30.4073 34.0022 30.3372C33.3146 29.923 32.7049 29.4133 32.306 28.9195L32.2476 28.8494L32.5427 28.7697C33.6 28.4862 34.4984 28.1804 35.3903 27.8045C35.5168 27.7535 35.6206 27.712 35.6238 27.712ZM38.8281 28.8112C38.8281 28.8112 38.8313 28.8143 38.8281 28.8112C38.8313 28.8844 38.6659 29.5407 38.5297 30.0154C38.4162 30.4136 38.3188 30.7259 38.1405 31.277C38.0627 31.5192 37.9946 31.7198 37.9913 31.7198C37.9881 31.7198 37.9686 31.7167 37.9492 31.7103C36.986 31.5382 36.1233 31.2993 35.3125 30.9807C35.0854 30.8915 34.7611 30.7481 34.7417 30.7322C34.7352 30.7258 34.9298 30.6366 35.1763 30.5315C36.6519 29.8975 38.1827 29.1775 38.7081 28.8685C38.7697 28.8303 38.8183 28.8112 38.8281 28.8112ZM31.4304 29.0597C31.4369 29.066 31.025 29.6491 30.4477 30.4423C30.2466 30.7195 30.0131 31.0445 29.9256 31.1655C29.838 31.2866 29.705 31.4777 29.6304 31.5924L29.4942 31.7995L29.3482 31.6785C29.1763 31.5383 28.878 31.2388 28.745 31.0731C28.4661 30.7323 28.278 30.3723 28.2034 30.0442C28.1677 29.8912 28.1677 29.8147 28.2001 29.8052C28.2488 29.7925 29.1147 29.5917 29.9255 29.4069C30.3764 29.305 30.8985 29.184 31.0866 29.1393C31.2747 29.0947 31.4272 29.0597 31.4304 29.0597ZM31.8455 29.2158L31.9493 29.3305C32.4163 29.8434 32.8931 30.2226 33.4703 30.5538C33.5742 30.6112 33.652 30.6622 33.6454 30.6654C33.6228 30.6813 31.6412 31.3726 30.7234 31.6848C30.2077 31.8632 29.7828 32.0066 29.7796 32.0066C29.7764 32.0066 29.7472 31.9875 29.7147 31.9652L29.6564 31.9237L29.7504 31.79C30.0553 31.3567 30.438 30.882 31.2715 29.8944L31.8455 29.2158ZM34.4336 31.0349C34.4368 31.0317 34.5795 31.0827 34.7546 31.1465C35.1763 31.3025 35.5103 31.4013 35.9579 31.5128C36.5092 31.6498 37.307 31.7836 37.7773 31.8218C37.8487 31.8282 37.8876 31.8346 37.8746 31.8441C37.8518 31.8569 37.3752 32.013 37.0249 32.1213C36.467 32.2933 34.7644 32.7871 33.3763 33.179C33.1201 33.2523 32.8995 33.3128 32.8866 33.316C32.8542 33.3224 32.7471 33.2937 32.7471 33.2809C32.7471 33.2746 32.8249 33.1759 32.919 33.0675C33.386 32.5195 33.8498 31.9079 34.2358 31.328C34.3427 31.1687 34.4336 31.0381 34.4336 31.0349ZM33.8628 31.0509C33.866 31.054 33.6357 31.4172 33.2336 32.0416C33.0617 32.3061 32.8703 32.6055 32.8022 32.7107C32.7374 32.8126 32.6401 32.9719 32.585 33.0611L32.4909 33.2236L32.4423 33.2109C32.3255 33.179 31.505 32.8954 31.2877 32.8094C31.0185 32.7043 30.7396 32.5769 30.532 32.4686C30.2726 32.3315 29.9483 32.1276 29.9742 32.1213C29.9807 32.1181 30.425 32.0002 30.9601 31.8569C32.3806 31.4777 33.1687 31.2579 33.6844 31.0986C33.7785 31.0699 33.8595 31.0476 33.8628 31.0509ZM37.9005 31.9811H37.9037C37.9167 32.013 37.3914 33.4466 37.1999 33.899C37.1578 34.0009 37.1417 34.0265 37.1189 34.0232C37.0638 34.0201 36.3017 33.9149 35.8378 33.848C35.0303 33.727 33.6747 33.4944 33.3341 33.4179L33.2563 33.402L33.7395 33.2936C34.7773 33.0643 35.2768 32.94 35.7827 32.7871C36.4216 32.596 37.0541 32.357 37.6929 32.0639C37.7935 32.0193 37.8778 31.9843 37.9005 31.9811Z" fill="url(#paint0_linear)"/>
<path d="M35.4909 13.143C35.4195 13.1335 34.2682 13.5413 33.5255 13.8375C32.5233 14.239 31.745 14.6213 31.265 14.9526C31.0867 15.0769 30.8629 15.2967 30.8272 15.3827C30.8143 15.4145 30.8077 15.4528 30.8077 15.491L31.2423 15.8956L32.2769 16.2206L34.7385 16.6538L37.5535 17.1285L37.5827 16.8896C37.573 16.8896 37.5665 16.8864 37.5569 16.8864L37.1871 16.8291L37.1125 16.6985C36.7298 16.0358 36.3082 15.2138 36.0617 14.6595C35.8704 14.2294 35.6888 13.7324 35.5882 13.3756C35.5331 13.1589 35.5266 13.1462 35.491 13.143V13.143H35.4909V13.143ZM35.4389 13.3055H35.4423C35.4455 13.3087 35.4584 13.3979 35.4714 13.503C35.5265 13.9491 35.6271 14.3791 35.786 14.8443C35.906 15.1947 35.906 15.1756 35.7666 15.1342C35.4358 15.045 33.9537 14.7933 32.8802 14.6468C32.7083 14.6244 32.5623 14.6022 32.5623 14.599C32.5493 14.5862 33.3374 14.1816 33.6844 14.0224C34.1287 13.8216 35.3482 13.3214 35.4389 13.3055ZM32.3125 14.7328L32.4391 14.7741C33.1266 15.0036 34.8552 15.3285 35.8087 15.405C35.9157 15.4145 36.0066 15.4241 36.0097 15.4241C36.013 15.4273 35.9222 15.4751 35.8054 15.5292C35.3449 15.7554 34.839 16.0326 34.4887 16.2461C34.385 16.3098 34.2909 16.3608 34.2779 16.3608C34.265 16.3608 34.1969 16.348 34.1255 16.3384L33.9958 16.3193L33.6715 16.0071C33.1007 15.4623 32.6531 15.0418 32.4812 14.8825L32.3125 14.7328ZM32.1829 14.8315L32.6401 15.3922C32.8898 15.7013 33.1428 16.0039 33.198 16.0708C33.2531 16.1377 33.2985 16.1919 33.2953 16.1951C33.2823 16.2046 32.6337 16.0804 32.2899 16.0039C31.9364 15.9243 31.7904 15.886 31.5731 15.8192L31.3948 15.7618V15.7172C31.398 15.5037 31.6737 15.1851 32.1407 14.8602L32.1829 14.8315ZM36.0682 15.5961C36.0812 15.5961 36.0973 15.6248 36.1362 15.7108C36.2465 15.9497 36.5904 16.5933 36.6746 16.7175C36.7006 16.759 36.746 16.7622 36.2887 16.6889C35.1893 16.5136 34.8358 16.4563 34.8358 16.45C34.8358 16.4468 34.8682 16.4245 34.9104 16.4022C35.2509 16.2174 35.5947 15.9816 35.8995 15.73C35.9741 15.6694 36.0422 15.6121 36.0552 15.6025C36.0584 15.5961 36.0649 15.593 36.0682 15.5961Z" fill="url(#paint1_linear)"/>
<path d="M30.8498 15.3381C30.8498 15.3381 30.7785 15.4496 30.8466 15.6153C30.8888 15.7172 31.0121 15.8414 31.1515 15.9689C31.1515 15.9689 32.5947 17.3516 32.7698 17.5491C33.5676 18.4539 33.9147 19.3459 33.9471 20.5757C33.9666 21.3658 33.8141 22.0603 33.4347 22.8663C32.7601 24.3127 31.3363 25.9089 29.1407 27.6802L29.4618 27.5751C29.6694 27.4221 29.9515 27.2597 30.6131 26.9029C32.1406 26.0809 33.8595 25.3258 35.9676 24.5485C39.0032 23.427 43.9945 22.1144 46.8354 21.6876L47.1306 21.6429L47.0852 21.5728C46.8258 21.1778 46.6473 20.9325 46.4333 20.6712C45.8106 19.913 45.055 19.2981 44.1307 18.7884C42.8593 18.0907 41.215 17.5459 39.1329 17.1413C38.7405 17.0648 37.8778 16.9183 37.1773 16.8132C35.6919 16.587 34.7319 16.4309 33.6747 16.2525C33.2952 16.1887 32.7276 16.0932 32.3514 16.0135C32.1568 15.9721 31.7839 15.8861 31.492 15.7873C31.2585 15.6981 30.9212 15.6089 30.8498 15.3381ZM31.6866 16.1346C31.6898 16.1314 31.7417 16.1505 31.8099 16.1728C31.9331 16.2142 32.092 16.262 32.2802 16.313C32.4225 16.3514 32.5652 16.3886 32.7083 16.4245C32.9028 16.4722 33.065 16.5169 33.0682 16.5169C33.0909 16.5392 33.4185 17.5681 33.5288 17.9632C33.5709 18.113 33.6034 18.2404 33.6001 18.2404C33.5968 18.2436 33.5612 18.1894 33.519 18.1161C33.1396 17.4598 32.5396 16.794 31.8455 16.2588C31.7548 16.1951 31.6866 16.1377 31.6866 16.1346ZM33.2823 16.5678C33.2985 16.5678 33.3699 16.5774 33.4574 16.5965C34.0087 16.7176 34.9979 16.9024 35.6303 17.0075C35.7373 17.0234 35.8217 17.0426 35.8217 17.0489C35.8217 17.0553 35.7827 17.0776 35.7341 17.1031C35.6271 17.1572 35.1957 17.4089 35.0531 17.5045C34.693 17.7402 34.3687 17.9951 34.1352 18.2245C34.0412 18.3169 33.9601 18.3933 33.9601 18.3933C33.9601 18.3933 33.9407 18.3392 33.9244 18.2722C33.8077 17.8294 33.5644 17.1731 33.3439 16.7112C33.3082 16.6379 33.279 16.571 33.279 16.5647C33.279 16.571 33.279 16.5678 33.2823 16.5678ZM36.0908 17.0935C36.1103 17.0999 36.1427 17.2082 36.2076 17.4471C36.3276 17.9091 36.3828 18.4252 36.3633 18.9063C36.3568 19.0401 36.3503 19.1643 36.3438 19.1803L36.3341 19.2121L36.1654 19.158C35.8184 19.0496 35.2541 18.8871 34.7709 18.7533C34.4952 18.6801 34.2715 18.6132 34.2715 18.6068C34.2715 18.5877 34.6736 18.1926 34.8455 18.0429C35.173 17.7593 36.0616 17.0839 36.0908 17.0935ZM36.3146 17.1253C36.3244 17.1158 37.6573 17.342 38.2638 17.4567C38.7146 17.5427 39.3697 17.6765 39.4086 17.6925C39.4281 17.6988 39.36 17.737 39.1427 17.8326C38.2865 18.2118 37.6508 18.5526 37.0184 18.9668C36.853 19.0751 36.7136 19.1643 36.7103 19.1643C36.7071 19.1643 36.7038 19.0719 36.7038 18.9604C36.7038 18.3551 36.5806 17.7434 36.3535 17.2273C36.3308 17.1763 36.3114 17.1286 36.3146 17.1253ZM39.7621 17.7944C39.7719 17.804 39.7297 18.062 39.6908 18.2149C39.574 18.6896 39.2594 19.3938 38.8735 20.0564C38.8054 20.1743 38.7438 20.2698 38.7372 20.273C38.7308 20.2762 38.6432 20.2284 38.5427 20.171C38.1665 19.9544 37.7384 19.7505 37.2714 19.5593C37.1417 19.5052 37.0281 19.4606 37.0249 19.4543C37.0021 19.4351 38.0465 18.7565 38.5978 18.4316C39.0357 18.1703 39.7491 17.7816 39.7621 17.7944ZM40.0086 17.8326C40.0378 17.8326 40.6281 17.9919 40.9361 18.0811C41.6983 18.3042 42.5739 18.6195 43.1447 18.8744L43.3814 18.9796L43.2161 19.0178C41.8216 19.3332 40.6281 19.6964 39.4767 20.1551C39.3826 20.1934 39.2983 20.2252 39.2919 20.2252C39.2854 20.2252 39.3178 20.152 39.36 20.0627C39.707 19.3396 39.9308 18.5845 39.9859 17.9409C39.9892 17.8804 39.9988 17.8326 40.0086 17.8326ZM34.132 19.158C34.1417 19.1484 34.5925 19.2535 34.8358 19.3204C35.2055 19.4224 35.9903 19.6804 35.9903 19.6995C35.9903 19.7027 35.9028 19.776 35.799 19.8652C35.3741 20.2125 34.9655 20.5788 34.4757 21.044C34.3298 21.181 34.2066 21.2925 34.2001 21.2925C34.1936 21.2925 34.1904 21.2733 34.1936 21.2479C34.2682 20.7126 34.252 20.0245 34.1482 19.3268C34.1384 19.2376 34.1287 19.1611 34.132 19.158ZM43.6053 19.1675C43.6117 19.1739 43.3977 19.5052 43.2615 19.6932C43.067 19.9671 42.7815 20.3304 42.1361 21.1268C41.7956 21.5473 41.4129 22.0221 41.2864 22.1814C41.1566 22.3406 41.0497 22.4744 41.0464 22.4744C41.0431 22.4744 41.001 22.4171 40.9556 22.347C40.5924 21.8118 40.1577 21.3435 39.6421 20.9229C39.5448 20.8433 39.4378 20.7572 39.4021 20.7318C39.3665 20.7063 39.3372 20.6808 39.3372 20.6776C39.3372 20.6681 39.8885 20.4355 40.307 20.2698C41.0399 19.9767 42.0387 19.6263 42.788 19.4001C43.1804 19.279 43.5988 19.1611 43.6053 19.1675ZM43.855 19.2312C43.8679 19.2281 43.9458 19.2663 44.0399 19.3204C44.828 19.7632 45.5998 20.3335 46.2096 20.9197C46.3814 21.0854 46.8063 21.5187 46.7998 21.5219C46.7998 21.5219 46.6506 21.5346 46.4755 21.5473C45.1101 21.6493 43.3621 21.9328 41.6821 22.331C41.5686 22.3565 41.4681 22.3788 41.4616 22.3788C41.4551 22.3788 41.5816 22.2546 41.7405 22.1049C42.7264 21.1714 43.1773 20.582 43.7091 19.5307C43.7837 19.3746 43.8485 19.2408 43.855 19.2312C43.8518 19.2312 43.8518 19.2312 43.855 19.2312ZM36.6324 19.9576C36.6779 19.9671 37.0995 20.1616 37.4173 20.3176C37.7092 20.4609 38.1471 20.6904 38.1697 20.7094C38.173 20.7126 38.0173 20.7923 37.826 20.8847C37.2162 21.1842 36.6941 21.4677 36.1492 21.7926C35.9936 21.885 35.8638 21.9615 35.8606 21.9615C35.8476 21.9615 35.8509 21.9487 35.9384 21.7926C36.2303 21.2702 36.4638 20.6458 36.5968 20.0372C36.6097 19.9895 36.6227 19.9576 36.6324 19.9576ZM36.2108 20.0341C36.2206 20.0436 36.1103 20.4355 36.0422 20.6489C35.9092 21.0535 35.6854 21.5601 35.4682 21.9424C35.4162 22.0316 35.3384 22.1622 35.2963 22.2355L35.2152 22.3629L35.0336 22.1909C34.8228 21.9902 34.6509 21.8659 34.4304 21.7544C34.3428 21.7098 34.2747 21.6716 34.2747 21.6652C34.2747 21.6397 34.8293 21.1459 35.2541 20.7891C35.559 20.5311 36.2011 20.0245 36.2108 20.0341ZM38.7892 21.0759L38.9481 21.1778C39.3113 21.4104 39.7394 21.7194 40.067 21.9902C40.2518 22.1399 40.6086 22.4553 40.68 22.5318L40.7188 22.5732L40.4562 22.6465C38.9708 23.0511 37.8227 23.4111 36.4833 23.8954C36.3341 23.9495 36.2076 23.9941 36.1978 23.9941C36.1784 23.9941 36.1622 24.01 36.4963 23.7073C37.3525 22.9332 38.1113 22.0794 38.6757 21.2479L38.7892 21.0759ZM38.1114 21.2415C38.1178 21.2479 37.6735 21.8627 37.4076 22.21C37.0897 22.6242 36.5254 23.3187 36.1362 23.771C35.9741 23.959 35.8347 24.1151 35.8282 24.1183C35.8184 24.1215 35.8152 24.0737 35.8152 24.0005C35.8152 23.6149 35.7147 23.204 35.5395 22.8535C35.4649 22.707 35.4519 22.6719 35.4682 22.656C35.5298 22.6018 36.4736 22.073 37.0703 21.7576C37.4724 21.5474 38.1016 21.2351 38.1114 21.2415ZM34.012 22.2291C34.0217 22.2291 34.0963 22.2673 34.1806 22.312C34.3882 22.4235 34.5731 22.5477 34.7384 22.6815C34.7449 22.6879 34.6606 22.7548 34.5504 22.8344C34.2422 23.0511 33.7752 23.3984 33.5029 23.6118C33.2174 23.8348 33.2077 23.8412 33.2401 23.7934C33.4542 23.4716 33.5612 23.29 33.6747 23.0575C33.7752 22.8504 33.8758 22.6051 33.9471 22.3916C33.973 22.2992 34.0055 22.2291 34.012 22.2291ZM35.1049 23.0702C35.1211 23.067 35.1406 23.0957 35.2282 23.2231C35.413 23.4939 35.5557 23.8571 35.5915 24.1502L35.5979 24.214L35.1536 24.3828C34.359 24.6855 33.6261 24.985 33.1298 25.2079C32.9904 25.2717 32.7471 25.3863 32.5882 25.4628C32.4293 25.5424 32.2996 25.603 32.2996 25.5998C32.2996 25.5966 32.4001 25.5234 32.5233 25.4341C33.4931 24.7428 34.3331 23.9845 34.9622 23.2263C35.0304 23.1467 35.092 23.0734 35.0984 23.0702L35.1049 23.0702ZM34.6023 23.1913C34.6152 23.204 34.2455 23.615 33.9926 23.8667C33.3666 24.4943 32.7472 24.985 31.9785 25.4628C31.8812 25.5234 31.7937 25.5775 31.7839 25.5839C31.7612 25.5966 31.7904 25.5648 32.1277 25.2047C32.3418 24.9785 32.5039 24.7874 32.6888 24.5517C32.812 24.3956 32.8347 24.3733 33.0131 24.249C33.4899 23.9113 34.5893 23.1785 34.6023 23.1913Z" fill="url(#paint2_radial)"/>
<path d="M20.558 36.383C20.4981 36.383 20.4383 36.3886 20.379 36.3886C19.1706 36.4519 18.3556 36.9743 17.8791 37.9945C17.4715 38.9171 17.516 40.1232 17.8836 41.0515C18.3111 41.9585 19.0019 42.4373 20.155 42.6181C20.399 42.6573 20.5625 42.7889 21.035 43.3309L21.6164 44H22.6709L21.9698 43.3056C21.5822 42.9249 21.2687 42.5934 21.2687 42.5643C21.2687 42.5352 21.417 42.4714 21.5964 42.4176C22.1881 42.2418 22.6794 41.7928 23.0231 41.1046C23.3012 40.552 23.3412 40.3812 23.381 39.6937C23.4854 37.6472 22.387 36.3678 20.5579 36.3824L20.558 36.383ZM21.4825 41.7346C20.9695 41.9787 20.2246 42.0274 19.7384 41.8522C19.2356 41.6708 18.7489 41.1579 18.53 40.5773C18.2866 39.9424 18.3213 38.7711 18.5995 38.2436C19.0469 37.4037 19.6386 37.0174 20.5032 37.0174C21.7857 37.0174 22.5152 37.789 22.6104 39.2391C22.6857 40.4497 22.273 41.3578 21.483 41.7341L21.4825 41.7346ZM39.6978 38.131C39.2555 38.131 38.9169 38.3069 38.6889 38.6534L38.5099 38.9278V38.2144H37.7445V42.4922H38.5094V41.1249C38.5094 39.8746 38.5253 39.7284 38.7032 39.3863C38.9483 38.9171 39.37 38.6831 39.7776 38.7951L40.0512 38.8735V38.1322H39.6978V38.131ZM35.2007 38.0918C35.0508 38.0918 34.8917 38.1114 34.7333 38.1456C33.709 38.4087 33.1317 39.3718 33.167 40.3628C33.167 41.1926 33.3311 41.6075 33.7387 42.0426C34.5738 42.7156 35.3289 42.7693 36.348 42.4082C36.5219 42.3354 36.7111 42.2514 36.7111 42.2514V41.5784L36.348 41.7632C35.5233 42.1159 34.902 42.1159 34.4044 41.7005C34.087 41.383 33.9473 41.0022 33.8829 40.5678H36.9693V39.991C36.9693 38.8152 36.2489 38.0728 35.2001 38.0918H35.2007ZM33.9524 39.9675C33.9524 39.9675 34.0664 39.2341 34.4894 38.9463C34.6929 38.8051 34.9265 38.7369 35.1551 38.7369C35.3842 38.7369 35.6128 38.8096 35.8014 38.9513C36.1891 39.2441 36.254 39.962 36.254 39.962H33.9525V39.9675H33.9524ZM15.4982 39.196C14.6684 38.7021 14.3002 38.346 14.3452 37.9261C14.474 36.7643 15.9355 36.925 16.7448 37.3645L16.7505 36.5829C16.7505 36.5829 16.3031 36.3926 15.6618 36.3825C14.6781 36.3679 14.042 36.6848 13.7439 37.3298C13.3061 38.2816 13.6938 38.9994 15.0948 39.8001C15.8813 40.2497 16.229 40.64 16.229 41.0655C16.229 41.9446 15.15 42.2514 14.0369 41.6999C13.8078 41.5879 13.614 41.4944 13.6037 41.4944C13.5638 41.7436 13.5844 42.3399 13.5844 42.3399C13.5844 42.3399 13.9264 42.481 14.4393 42.5783C15.7115 42.8275 16.8691 42.2413 16.9786 41.2894C17.0738 40.3959 16.7448 39.9272 15.4983 39.1954L15.4982 39.196ZM46.4726 38.0818C46.3232 38.0818 46.1647 38.1019 45.9994 38.1361C44.9764 38.3992 44.4001 39.3623 44.4394 40.3534C44.4394 41.182 44.603 41.593 45.0105 42.0274C45.8456 42.701 46.6008 42.7553 47.625 42.3937C47.7983 42.3209 47.987 42.2381 47.987 42.2381V41.564L47.6245 41.7498C46.7981 42.1014 46.1767 42.1014 45.6809 41.686C45.3617 41.3691 45.2232 40.9928 45.1588 40.5532H48.2401V39.9765C48.2401 38.8064 47.5196 38.0633 46.4708 38.083L46.4726 38.0818ZM45.2243 39.9575C45.2243 39.9575 45.3394 39.2251 45.7618 38.9317C45.9647 38.7901 46.1984 38.7217 46.4269 38.7217C46.6549 38.7217 46.8846 38.7945 47.0733 38.9367C47.4609 39.2296 47.5259 39.9524 47.5259 39.9524H45.2249L45.2243 39.9575ZM31.1937 39.2055C30.3639 38.7128 29.9968 38.3555 30.0412 37.9356C30.17 36.7732 31.6315 36.9345 32.4408 37.374L32.4466 36.5924C32.4466 36.5924 31.9991 36.402 31.3579 36.3931C30.3741 36.3785 29.738 36.6954 29.4394 37.3404C29.0022 38.2922 29.3949 39.0101 30.7913 39.8108C31.5768 40.2598 31.9245 40.645 31.9245 41.0705C31.9245 41.9496 30.8461 42.2615 29.7329 41.7049C29.5049 41.5929 29.3111 41.5005 29.2997 41.5005C29.2598 41.7496 29.2804 42.346 29.2804 42.346C29.2804 42.346 29.6184 42.4821 30.1296 42.5845C31.4029 42.8342 32.5611 42.2485 32.67 41.2967C32.7647 40.4075 32.4363 39.9389 31.1938 39.2066V39.2055H31.1937ZM50.9702 38.121C50.5279 38.121 50.1854 38.2973 49.9614 38.6439L49.7824 38.9171V38.205H49.0169V42.4815H49.7818V41.1143C49.7818 39.8645 49.7972 39.7178 49.9757 39.3763C50.2207 38.9077 50.6425 38.6731 51.05 38.7856L51.3236 38.864V38.121H50.9702V38.121ZM25.1064 39.1809V36.4563H24.3347V42.4911H27.5801V41.7783H25.1064V39.1809H25.1064ZM42.9535 40.0302L42.3174 41.6562L41.7058 40.0213L41.0845 38.2094H40.2946C40.8064 39.635 41.3632 41.0851 41.9247 42.4911C42.1681 42.4966 42.412 42.4911 42.6553 42.4911L43.5144 40.3724L44.3893 38.21H43.6341C43.6341 38.21 43.3006 39.0689 42.953 40.0308L42.9535 40.0302ZM26.8847 34.8119C27.009 34.8119 27.1127 34.7727 27.1982 34.6887C27.2825 34.6058 27.327 34.5084 27.327 34.3864C27.327 34.2643 27.2825 34.1624 27.1982 34.084C27.1127 34.0056 27.0141 33.9664 26.8904 33.9664C26.765 33.9664 26.6613 34.0056 26.5769 34.0885C26.4914 34.1714 26.4526 34.2733 26.4526 34.3909C26.4526 34.514 26.4926 34.6159 26.5769 34.6932C26.6567 34.7716 26.7605 34.8108 26.8847 34.8108V34.8119ZM26.6111 34.1176C26.6852 34.0448 26.7753 34.0112 26.8904 34.0112C26.9987 34.0112 27.0888 34.0448 27.164 34.1176C27.2381 34.1904 27.278 34.2789 27.278 34.3864C27.278 34.4939 27.2381 34.5868 27.164 34.6596C27.0888 34.7323 26.9987 34.7671 26.8904 34.7671C26.7804 34.7671 26.6909 34.7335 26.6168 34.6596C26.5427 34.5868 26.5028 34.4939 26.5028 34.3864C26.5028 34.2789 26.537 34.1904 26.6111 34.1176ZM26.7952 34.4256H26.8454C26.8807 34.4256 26.9155 34.4591 26.9451 34.523L27.005 34.6551H27.099L27.025 34.5084C26.9948 34.4496 26.9651 34.4155 26.9303 34.4059C26.9742 34.3958 27.009 34.3813 27.0341 34.3521C27.0591 34.327 27.0682 34.2928 27.0682 34.2541C27.0682 34.2094 27.054 34.1758 27.0238 34.1511C26.9896 34.1232 26.9349 34.1081 26.8642 34.1081H26.7058V34.6551H26.7856V34.4255L26.7952 34.4256ZM26.7952 34.1714H26.8648C26.9149 34.1714 26.9503 34.1814 26.9697 34.196C26.9885 34.2105 26.9936 34.2296 26.9936 34.2643C26.9936 34.3275 26.9536 34.3573 26.8796 34.3573H26.7941V34.1714H26.7952ZM14.0471 34.3768C14.0471 34.1865 14.0414 34.0449 14.0368 33.9614H14.0414C14.0613 34.0599 14.0858 34.1333 14.1058 34.182L14.8467 35.808H14.971L15.7119 34.1674C15.7319 34.1227 15.7519 34.0555 15.7764 33.9619H15.7821C15.7673 34.1243 15.7621 34.2654 15.7621 34.3779V35.813H16.0157V33.6798H15.6977L15.0166 35.1635C14.9915 35.2223 14.9567 35.3102 14.9123 35.4267H14.902C14.8872 35.369 14.8524 35.2811 14.8028 35.1736L14.1371 33.6747H13.7991V35.8079H14.043V34.3779L14.0471 34.3768ZM16.5715 34.3808H16.7904V35.7094H16.5715V34.3808ZM16.6809 33.8937C16.7266 33.8937 16.7653 33.8785 16.7949 33.8489C16.8252 33.8197 16.8451 33.7817 16.8451 33.7369C16.8451 33.6932 16.8303 33.654 16.7955 33.6249C16.7648 33.5952 16.7254 33.5801 16.6804 33.5801C16.636 33.5801 16.5961 33.5952 16.5664 33.6249C16.5363 33.654 16.5162 33.6932 16.5162 33.7369C16.5162 33.7856 16.5317 33.8197 16.5664 33.8489C16.6006 33.8785 16.6359 33.8937 16.6804 33.8937H16.6809ZM18.351 35.7386V35.5045C18.2313 35.5924 18.1025 35.6361 17.9691 35.6361C17.8096 35.6361 17.6801 35.5824 17.5855 35.4794C17.4915 35.3775 17.4413 35.2358 17.4413 35.0594C17.4413 34.8747 17.4915 34.7279 17.5952 34.6159C17.6949 34.5084 17.8244 34.4547 17.9828 34.4547C18.1122 34.4547 18.2364 34.4939 18.351 34.5723V34.3232C18.2468 34.2694 18.1276 34.2448 17.9931 34.2448C17.7445 34.2448 17.5508 34.3232 17.406 34.4744C17.2624 34.6256 17.1883 34.8311 17.1883 35.0791C17.1883 35.2997 17.2527 35.485 17.3867 35.6267C17.5263 35.7723 17.7048 35.8462 17.9236 35.8462C18.0928 35.8416 18.2313 35.8068 18.351 35.7386ZM18.9774 35.0303C18.9774 34.855 19.0173 34.7134 19.0914 34.6159C19.161 34.528 19.2453 34.4838 19.345 34.4838C19.4294 34.4838 19.4892 34.4989 19.5331 34.5331V34.2789C19.4989 34.2643 19.4493 34.2593 19.3849 34.2593C19.2954 34.2593 19.2157 34.2889 19.1456 34.3433C19.0715 34.4009 19.0122 34.4888 18.9774 34.6008H18.9717V34.2889H18.7238V35.8119H18.9723V35.0303H18.9774ZM20.4041 35.8421C20.6378 35.8421 20.8259 35.7682 20.9655 35.6215C21.1045 35.4759 21.1741 35.28 21.1741 35.0358C21.1741 34.7867 21.1103 34.5963 20.9803 34.4546C20.8515 34.313 20.6725 34.2446 20.4388 34.2446C20.2051 34.2446 20.017 34.313 19.8773 34.4451C19.728 34.5908 19.6494 34.7962 19.6494 35.0599C19.6494 35.2895 19.7132 35.4799 19.8478 35.6215C19.9868 35.7682 20.1709 35.8416 20.4041 35.8416V35.8421ZM20.0507 34.6014C20.1453 34.5034 20.2696 34.4546 20.4234 34.4546C20.5831 34.4546 20.7027 34.5034 20.7917 34.6014C20.8811 34.7038 20.9256 34.85 20.9256 35.0454C20.9256 35.2312 20.8857 35.3774 20.8013 35.4754C20.717 35.5779 20.5927 35.6321 20.4285 35.6321C20.269 35.6321 20.1453 35.5778 20.0507 35.4754C19.9566 35.3724 19.9116 35.2312 19.9116 35.0454C19.9019 34.8606 19.9515 34.7095 20.0507 34.6014ZM22.2622 35.7094C22.3568 35.6266 22.407 35.5247 22.407 35.397C22.407 35.285 22.3671 35.1921 22.293 35.1187C22.2325 35.06 22.1391 35.0067 22.004 34.953C21.8843 34.9038 21.8102 34.86 21.7703 34.8259C21.7304 34.7867 21.7059 34.738 21.7059 34.6691C21.7059 34.6059 21.731 34.5571 21.78 34.5179C21.8302 34.4788 21.894 34.4598 21.9795 34.4598C22.1135 34.4598 22.228 34.4944 22.3329 34.5678V34.3237C22.2326 34.2745 22.1237 34.2509 21.9994 34.2509C21.8399 34.2509 21.7053 34.2941 21.6061 34.3774C21.5018 34.4604 21.4523 34.5678 21.4523 34.6943C21.4523 34.8063 21.4864 34.8993 21.5514 34.9676C21.6061 35.0258 21.6996 35.0852 21.8295 35.1383C21.9538 35.1921 22.0382 35.2408 22.0832 35.28C22.1276 35.3192 22.1476 35.3679 22.1476 35.4256C22.1476 35.5678 22.0484 35.6412 21.8546 35.6412C21.7053 35.6412 21.5714 35.593 21.4516 35.4956V35.7587C21.5599 35.8226 21.6899 35.8516 21.8335 35.8516C22.0176 35.8421 22.1618 35.7979 22.261 35.71L22.2622 35.7094ZM23.4455 34.2447C23.2117 34.2447 23.0237 34.313 22.884 34.4452C22.7358 34.5908 22.6561 34.7963 22.6561 35.06C22.6561 35.2896 22.7205 35.4799 22.8544 35.6216C22.9941 35.7682 23.1776 35.8416 23.4113 35.8416C23.6507 35.8416 23.8331 35.7677 23.9727 35.621C24.1124 35.4754 24.1819 35.2795 24.1819 35.0353C24.1819 34.7862 24.1169 34.5958 23.9881 34.4541C23.8536 34.3125 23.6746 34.2442 23.4466 34.2442L23.4455 34.2447ZM23.9277 35.0454C23.9277 35.2313 23.8878 35.3774 23.8034 35.4754C23.719 35.5779 23.5948 35.6322 23.4306 35.6322C23.271 35.6322 23.1473 35.5778 23.0527 35.4754C22.9587 35.3724 22.9136 35.2313 22.9136 35.0454C22.9136 34.8494 22.9633 34.6983 23.063 34.5963C23.157 34.4989 23.2813 34.4496 23.4358 34.4496C23.5896 34.4496 23.7133 34.4989 23.8028 34.5963C23.8826 34.7038 23.9271 34.85 23.9271 35.0454H23.9277ZM24.5991 35.8074H24.8471V34.4889H25.2101V34.2839H24.847V34.0487C24.847 33.8349 24.9314 33.7274 25.1058 33.7274C25.1645 33.7274 25.2244 33.7419 25.2688 33.7666V33.5466C25.2244 33.527 25.1645 33.5225 25.0898 33.5225C24.9559 33.5225 24.8465 33.5617 24.7569 33.6446C24.6526 33.742 24.5974 33.8685 24.5974 34.0399V34.2896H24.3351V34.4945H24.5974V35.8081L24.5991 35.8074ZM25.6176 35.392C25.6176 35.6899 25.7516 35.8416 26.0252 35.8416C26.1244 35.8416 26.199 35.8259 26.2589 35.7912V35.5818C26.2133 35.6154 26.1591 35.6311 26.0993 35.6311C26.015 35.6311 25.9557 35.6114 25.9209 35.5672C25.8855 35.5236 25.8656 35.4496 25.8656 35.3477V34.4883H26.2589V34.2833H25.8656V33.8343C25.7801 33.8634 25.6964 33.8881 25.6171 33.9127V34.2833H25.3492V34.4883H25.6171V35.3914L25.6176 35.392ZM52.2926 38.1993C52.2082 38.121 52.1085 38.0818 51.9848 38.0818C51.8595 38.0818 51.7557 38.121 51.6713 38.2049C51.587 38.2873 51.547 38.3897 51.547 38.5073C51.547 38.6294 51.587 38.7313 51.6707 38.8096C51.7551 38.888 51.8588 38.9273 51.9842 38.9273C52.1079 38.9273 52.2122 38.888 52.2977 38.8052C52.3815 38.7212 52.4259 38.6243 52.4259 38.5028C52.4214 38.3797 52.3764 38.2777 52.292 38.1994L52.2926 38.1993ZM52.2527 38.7761C52.1786 38.8488 52.0885 38.8824 51.9791 38.8824C51.8708 38.8824 51.7808 38.8488 51.7055 38.7761C51.6315 38.7021 51.5915 38.6098 51.5915 38.5017C51.5915 38.3953 51.6257 38.3069 51.701 38.233C51.775 38.1602 51.8646 38.1266 51.9791 38.1266C52.0874 38.1266 52.1775 38.1602 52.2527 38.233C52.3268 38.3069 52.3667 38.3953 52.3667 38.5017C52.3667 38.6148 52.3325 38.7021 52.2527 38.7761ZM52.0292 38.5269C52.0737 38.5168 52.1091 38.4972 52.1336 38.4732C52.1587 38.4479 52.1678 38.4137 52.1678 38.3747C52.1678 38.331 52.1535 38.2962 52.1234 38.2722C52.0892 38.2442 52.0339 38.229 51.9638 38.229H51.8054V38.7755H51.8852V38.5459H51.9347C51.969 38.5459 52.0032 38.5795 52.0339 38.6433L52.0931 38.7749H52.1878L52.1138 38.6282C52.0881 38.5643 52.0584 38.5352 52.0283 38.5257L52.0292 38.5269ZM51.9745 38.4776H51.889V38.2929H51.9592C52.0088 38.2929 52.0435 38.3018 52.0635 38.317C52.0834 38.3315 52.088 38.3506 52.088 38.3853C52.088 38.4485 52.0481 38.4777 51.974 38.4777L51.9745 38.4776ZM38.1076 34.2207H38.1771V33.6736H38.3612V33.6053H37.9235V33.6736H38.1076V34.2207H38.1076ZM38.5294 33.8097C38.5294 33.7564 38.5294 33.7128 38.5254 33.6882C38.5299 33.7173 38.5402 33.7369 38.5448 33.7515L38.7585 34.2207H38.7927L39.007 33.7469C39.0128 33.7324 39.0173 33.7134 39.027 33.6882C39.0224 33.7369 39.0224 33.776 39.0224 33.8058V34.2201H39.0965V33.6053H39.007L38.8133 34.0297C38.8087 34.0449 38.7932 34.0745 38.7836 34.1081H38.7779C38.7739 34.0885 38.7637 34.0689 38.7494 34.0354L38.5556 33.6053H38.4553V34.2212H38.5254V33.8103L38.5294 33.8097Z" fill="#231F1F"/>
</g>
</g>
<defs>
<filter id="filter0_d" x="0" y="0" width="58" height="58" filterUnits="userSpaceOnUse" color-interpolation-filters="sRGB">
<feFlood flood-opacity="0" result="BackgroundImageFix"/>
<feColorMatrix in="SourceAlpha" type="matrix" values="0 0 0 0 0 0 0 0 0 0 0 0 0 0 0 0 0 0 127 0"/>
<feOffset dx="-4" dy="1"/>
<feGaussianBlur stdDeviation="2.5"/>
<feColorMatrix type="matrix" values="0 0 0 0 0 0 0 0 0 0 0 0 0 0 0 0 0 0 0.3 0"/>
<feBlend mode="normal" in2="BackgroundImageFix" result="effect1_dropShadow"/>
<feBlend mode="normal" in="SourceGraphic" in2="effect1_dropShadow" result="shape"/>
</filter>
<linearGradient id="paint0_linear" x1="30.7836" y1="32.1078" x2="32.3207" y2="31.1832" gradientUnits="userSpaceOnUse">
<stop stop-color="#909CA9"/>
<stop offset="1" stop-color="#EDEDEE"/>
</linearGradient>
<linearGradient id="paint1_linear" x1="30.8191" y1="15.1295" x2="32.0675" y2="15.1295" gradientUnits="userSpaceOnUse">
<stop stop-color="#939FAB"/>
<stop offset="1" stop-color="#DCDEE1"/>
</linearGradient>
<radialGradient id="paint2_radial" cx="0" cy="0" r="1" gradientUnits="userSpaceOnUse" gradientTransform="translate(37.1185 20.7539) rotate(-171.606) scale(1.60891 3.16419)">
<stop stop-color="#EE352C"/>
<stop offset="1" stop-color="#A91D22"/>
</radialGradient>
<clipPath id="clip0">
<rect width="38.8572" height="30.8571" fill="white" transform="translate(13.5712 13.1429)"/>
</clipPath>
</defs>
</svg>
