<svg width="58" height="58" viewBox="0 0 58 58" fill="none" xmlns="http://www.w3.org/2000/svg">
<g filter="url(#filter0_d)">
<path d="M52.3125 4H13.6875C11.0987 4 9 6.09867 9 8.6875V47.3125C9 49.9013 11.0987 52 13.6875 52H52.3125C54.9013 52 57 49.9013 57 47.3125V8.6875C57 6.09867 54.9013 4 52.3125 4Z" fill="#3178C6"/>
<path d="M52.3125 4H13.6875C11.0987 4 9 6.09867 9 8.6875V47.3125C9 49.9013 11.0987 52 13.6875 52H52.3125C54.9013 52 57 49.9013 57 47.3125V8.6875C57 6.09867 54.9013 4 52.3125 4Z" fill="#3178C6"/>
<path fill-rule="evenodd" clip-rule="evenodd" d="M38.713 42.196V46.8892C39.476 47.2803 40.3783 47.5736 41.4201 47.7692C42.4618 47.9647 43.5597 48.0625 44.714 48.0625C45.8389 48.0625 46.9074 47.955 47.9198 47.7398C48.9322 47.5248 49.82 47.1703 50.5829 46.6765C51.3458 46.1828 51.9499 45.5374 52.3949 44.7406C52.8399 43.9437 53.0625 42.9587 53.0625 41.7854C53.0625 40.9347 52.9354 40.1892 52.681 39.5488C52.4267 38.9084 52.0599 38.3388 51.5806 37.8402C51.1013 37.3415 50.5267 36.8942 49.8566 36.4982C49.1866 36.1022 48.431 35.7282 47.5897 35.3762C46.9735 35.122 46.4209 34.8752 45.9318 34.6356C45.4427 34.396 45.027 34.1516 44.6846 33.9023C44.3422 33.6529 44.0782 33.3889 43.8923 33.1103C43.7065 32.8316 43.6135 32.5163 43.6135 32.1643C43.6135 31.8417 43.6967 31.5508 43.863 31.2917C44.0293 31.0325 44.2641 30.8102 44.5672 30.6243C44.8705 30.4386 45.2422 30.2943 45.6823 30.1917C46.1226 30.089 46.6116 30.0377 47.1496 30.0377C47.5408 30.0377 47.9541 30.0671 48.3893 30.1257C48.8246 30.1844 49.2623 30.2748 49.7026 30.397C50.1428 30.5192 50.5706 30.6733 50.9864 30.859C51.4021 31.0448 51.786 31.2599 52.1381 31.5044V27.1191C51.4241 26.8454 50.644 26.6425 49.7979 26.5105C48.9518 26.3785 47.981 26.3125 46.8855 26.3125C45.7703 26.3125 44.714 26.4323 43.7163 26.6718C42.7186 26.9114 41.8407 27.2853 41.0826 27.7938C40.3245 28.3023 39.7254 28.95 39.2853 29.7371C38.8451 30.5241 38.625 31.4652 38.625 32.5603C38.625 33.9585 39.0285 35.1513 39.8355 36.1389C40.6424 37.1264 41.8675 37.9623 43.5109 38.6468C44.1564 38.9108 44.758 39.1698 45.3156 39.4241C45.8731 39.6783 46.3549 39.9423 46.7607 40.2161C47.1667 40.4898 47.487 40.7881 47.7218 41.1107C47.9566 41.4333 48.074 41.8 48.074 42.2107C48.074 42.5138 48.0006 42.7949 47.8538 43.054C47.7071 43.3131 47.4846 43.5379 47.1863 43.7286C46.8879 43.9193 46.5162 44.0684 46.0712 44.1759C45.6261 44.2835 45.1053 44.3372 44.5086 44.3372C43.4913 44.3372 42.4838 44.1588 41.4861 43.8019C40.4884 43.4451 39.564 42.9098 38.713 42.196ZM30.8231 30.6327H36.8438V26.7812H20.0625V30.6327H26.0537V47.7812H30.8231V30.6327Z" fill="white"/>
</g>
<defs>
<filter id="filter0_d" x="0" y="0" width="58" height="58" filterUnits="userSpaceOnUse" color-interpolation-filters="sRGB">
<feFlood flood-opacity="0" result="BackgroundImageFix"/>
<feColorMatrix in="SourceAlpha" type="matrix" values="0 0 0 0 0 0 0 0 0 0 0 0 0 0 0 0 0 0 127 0"/>
<feOffset dx="-4" dy="1"/>
<feGaussianBlur stdDeviation="2.5"/>
<feColorMatrix type="matrix" values="0 0 0 0 0 0 0 0 0 0 0 0 0 0 0 0 0 0 0.3 0"/>
<feBlend mode="normal" in2="BackgroundImageFix" result="effect1_dropShadow"/>
<feBlend mode="normal" in="SourceGraphic" in2="effect1_dropShadow" result="shape"/>
</filter>
</defs>
</svg>
