<svg width="34" height="34" viewBox="0 0 34 34" fill="none" xmlns="http://www.w3.org/2000/svg">
<path d="M21.8572 14.1867C21.25 13.5906 15.9071 12.16 11.5357 11.2063C11.5357 14.5443 11.6571 18.1208 12.1429 18.7169C12.75 19.313 18.0929 20.7436 22.4643 21.6973C22.4643 18.4785 22.3429 14.7828 21.8572 14.1867Z" fill="white"/>
<path d="M28.4143 22.7702C26.35 22.651 24.4071 22.2934 22.4643 21.6973C22.4643 24.5585 22.2214 27.1812 21.8571 27.5389C20.7643 28.0157 6.55714 24.5585 5.58571 23.6048C4.73571 22.4126 4.73571 10.9679 5.58571 10.1334C7.65 10.2526 9.59286 10.6102 11.5357 11.2063C11.5357 8.34512 11.7786 5.72237 12.1429 5.36472C13.2357 5.00707 27.3214 8.46433 28.4143 9.41806C29.2643 10.6102 29.2643 22.055 28.4143 22.7702ZM17 0C7.65 0 0 7.51061 0 16.6902C0 25.8699 7.65 33.3805 17 33.3805C26.35 33.3805 34 25.8699 34 16.6902C34 7.51061 26.4714 0 17 0Z" fill="white"/>
</svg>
