<svg width="42" height="42" viewBox="0 0 42 42" fill="none" xmlns="http://www.w3.org/2000/svg">
<rect x="11" y="13" width="30" height="28" fill="#0C0C0C"/>
<path d="M0 0H42V42H0V0ZM38.5595 31.983C38.2533 30.0667 37.0055 28.4567 33.3043 26.9552C32.0163 26.3515 30.5847 25.9315 30.1595 24.9602C30.0002 24.3827 29.9757 24.0677 30.079 23.7265C30.3415 22.596 31.6802 22.2565 32.7302 22.5715C33.4127 22.7815 34.0428 23.3065 34.4383 24.1465C36.2478 22.9635 36.2477 22.9635 37.5095 22.1778C37.037 21.4428 36.8025 21.126 36.484 20.8127C35.3815 19.579 33.9132 18.949 31.5245 19.0033L30.2908 19.159C29.1078 19.4477 27.9807 20.0778 27.2982 20.9178C25.3032 23.177 25.879 27.1145 28.294 28.742C30.6827 30.527 34.1758 30.919 34.622 32.6007C35.042 34.6482 33.0995 35.3045 31.1815 35.0682C29.7623 34.7532 28.9765 34.0427 28.1102 32.7302L24.9077 34.5695C25.2752 35.4095 25.6953 35.7753 26.3253 36.5103C29.3703 39.5833 36.9827 39.4257 38.3495 34.7532C38.4002 34.5957 38.7695 33.5195 38.479 31.8657L38.5595 31.983V31.983ZM22.8392 19.3043H18.9053C18.9053 22.6958 18.8895 26.0663 18.8895 29.463C18.8895 31.619 18.9998 33.5983 18.648 34.2073C18.0705 35.413 16.583 35.259 15.9075 35.0473C15.2145 34.7043 14.8628 34.2318 14.455 33.551C14.3448 33.3673 14.2625 33.208 14.2328 33.208L11.039 35.1767C11.5728 36.2792 12.3515 37.2278 13.356 37.8315C14.8522 38.724 16.863 39.0128 18.9682 38.5403C20.3385 38.1448 21.5197 37.331 22.1375 36.071C23.03 34.4435 22.841 32.4485 22.8322 30.2155C22.8532 26.621 22.8322 23.0247 22.8322 19.4022L22.8392 19.3043V19.3043Z" fill="#F7DF1E"/>
</svg>
