<svg width="42" height="42" viewBox="0 0 42 42" fill="none" xmlns="http://www.w3.org/2000/svg">
<rect width="42" height="42" rx="4" fill="#CD6799"/>
<path d="M21 5C29.836 5 37 12.164 37 21C37 29.836 29.836 37 21 37C12.164 37 5 29.836 5 21C5 12.164 12.164 5 21 5ZM17.82 26.3307C18.0533 27.1907 18.028 27.9947 17.788 28.72L17.7013 28.96C17.6693 29.0413 17.632 29.12 17.5973 29.1947C17.4107 29.5813 17.1627 29.9413 16.8573 30.2747C15.9267 31.2867 14.628 31.6707 14.0707 31.348C13.4707 30.9987 13.7693 29.568 14.8493 28.428C16.0107 27.204 17.676 26.416 17.676 26.416V26.412L17.82 26.3307ZM31.0347 11.8493C30.312 9.00533 25.5987 8.07067 21.1387 9.656C18.4867 10.5987 15.6133 12.08 13.548 14.012C11.0907 16.3067 10.7 18.3067 10.8613 19.1427C11.4307 22.0907 15.4707 24.0187 17.132 25.4493V25.4573C16.6427 25.6973 13.0573 27.496 12.2173 29.3573C11.3173 31.3173 12.3573 32.7187 13.0373 32.8973C15.1373 33.4787 17.2973 32.4173 18.4573 30.6987C19.5773 29.0173 19.4787 26.8573 18.996 25.7973C19.6573 25.6173 20.436 25.5373 21.436 25.6587C24.2373 25.9787 24.7973 27.7387 24.676 28.4587C24.556 29.1773 23.9787 29.5973 23.7773 29.7173C23.5773 29.8387 23.5173 29.8773 23.536 29.9587C23.556 30.0787 23.6573 30.0787 23.816 30.0587C24.036 30.0187 25.2773 29.4587 25.3373 28.0973C25.3973 26.3773 23.756 24.4587 20.8373 24.4973C19.6373 24.5187 18.876 24.6187 18.3373 24.8387C18.2973 24.7787 18.256 24.7387 18.1973 24.6987C16.3973 22.7587 13.0573 21.3987 13.1973 18.8187C13.2373 17.8787 13.5773 15.4 19.5973 12.4C24.5373 9.93867 28.4787 10.62 29.1587 12.12C30.136 14.2587 27.0573 18.24 21.9173 18.8187C19.9573 19.0387 18.9373 18.28 18.676 17.9987C18.3973 17.6987 18.3573 17.6787 18.2573 17.74C18.0973 17.82 18.1973 18.08 18.2573 18.24C18.4173 18.64 19.0373 19.34 20.1187 19.7C21.0573 20 23.3587 20.1787 26.1187 19.1C29.2173 17.9013 31.6373 14.56 30.9373 11.76L31.0347 11.8493Z" fill="white"/>
</svg>
