<svg width="42" height="42" viewBox="0 0 42 42" fill="none" xmlns="http://www.w3.org/2000/svg">
<rect width="42" height="42" rx="4" fill="white"/>
<g clip-path="url(#clip0)">
<path d="M12.2987 8.33997C12.2987 8.33997 12.192 8.5093 12.2933 8.75997C12.3547 8.91463 12.5413 9.1013 12.7467 9.29863C12.7467 9.29863 14.9 11.4 15.164 11.704C16.3573 13.0813 16.876 14.4373 16.924 16.308C16.9533 17.508 16.7227 18.564 16.16 19.792C15.152 21.9906 13.0267 24.416 9.74667 27.112L10.2267 26.952C10.5373 26.7213 10.9573 26.4733 11.9493 25.9306C14.2333 24.6826 16.7973 23.5333 19.948 22.3493C24.48 20.6466 31.9347 18.648 36.1773 17.9986L36.6187 17.9306L36.552 17.824C36.1627 17.2213 35.8987 16.8493 35.5787 16.4546C34.6493 15.304 33.5227 14.3653 32.1427 13.5933C30.2467 12.5306 27.7867 11.7053 24.676 11.0866C23.705 10.904 22.7311 10.7374 21.7547 10.5866C20.008 10.3188 18.2639 10.0343 16.5227 9.7333C15.956 9.6333 15.1093 9.49197 14.548 9.37063C14.1151 9.27866 13.6874 9.16383 13.2667 9.02663C12.9093 8.88663 12.4067 8.75063 12.2987 8.33997ZM13.5467 9.55197C13.5507 9.5493 13.6307 9.57463 13.7293 9.60797C13.9107 9.6693 14.1507 9.7413 14.4307 9.81997C14.6253 9.8733 14.84 9.93197 15.0693 9.9893C15.36 10.064 15.6013 10.128 15.604 10.132C15.636 10.168 16.1253 11.7293 16.292 12.328C16.356 12.5573 16.404 12.748 16.4 12.752C16.3535 12.6941 16.3133 12.6316 16.28 12.5653C15.7147 11.5706 14.8173 10.5586 13.7813 9.74397C13.7008 9.68285 13.6225 9.61881 13.5467 9.55197ZM15.9333 10.2106C15.9573 10.2093 16.0653 10.2266 16.1933 10.256C17.0187 10.4373 18.4933 10.7226 19.44 10.8826C19.5987 10.9093 19.728 10.936 19.728 10.9453C19.6894 10.98 19.6452 11.0079 19.5973 11.028C19.4387 11.108 18.7947 11.4933 18.58 11.6373C18.0427 11.9973 17.5587 12.3826 17.2067 12.732C17.1213 12.8195 17.0337 12.9049 16.944 12.988C16.94 12.988 16.9147 12.9053 16.8893 12.8053C16.6629 11.9932 16.3731 11.2001 16.0227 10.4333C15.9875 10.3616 15.9559 10.2882 15.928 10.2133C15.928 10.212 15.928 10.2106 15.9333 10.2106ZM20.1293 11.008C20.156 11.0173 20.2093 11.1813 20.3013 11.5466C20.5138 12.4081 20.5828 13.2987 20.5053 14.1826L20.4893 14.2333L20.24 14.1533C19.7227 13.988 18.88 13.74 18.1573 13.54C17.9052 13.4754 17.6561 13.3998 17.4107 13.3133C17.4107 13.284 18.0093 12.6853 18.2667 12.4573C18.7587 12.0226 20.0827 10.9933 20.1293 11.008ZM20.4627 11.056C20.4773 11.0426 22.468 11.3866 23.372 11.56C24.0467 11.6893 25.0213 11.8933 25.08 11.9186C25.1093 11.9293 25.008 11.9853 24.684 12.132C23.404 12.708 22.4547 13.2253 21.5107 13.856C21.2627 14.0213 21.056 14.1573 21.052 14.1573C21.0467 14.1573 21.044 14.0186 21.044 13.8506C21.044 12.9306 20.8587 12.0013 20.5227 11.216C20.4977 11.1646 20.4776 11.1111 20.4627 11.056ZM25.6093 12.0746C25.624 12.0893 25.5587 12.4826 25.5027 12.7146C25.3267 13.4346 24.86 14.5066 24.284 15.5133C24.2235 15.6268 24.1558 15.7364 24.0813 15.8413C23.9799 15.7983 23.8823 15.747 23.7893 15.688C23.2267 15.3586 22.5893 15.048 21.8893 14.7586C21.764 14.7094 21.6404 14.656 21.5187 14.5986C21.4867 14.5693 23.0427 13.5386 23.868 13.044C24.528 12.648 25.5907 12.056 25.6093 12.0746ZM25.9773 12.132C26.0213 12.132 26.904 12.372 27.36 12.5093C28.4973 12.8493 29.8093 13.328 30.66 13.7146L31.0133 13.8746L30.764 13.932C28.6827 14.412 26.8973 14.9626 25.18 15.66C25.0373 15.7186 24.9133 15.7666 24.904 15.7666C24.9282 15.681 24.9617 15.5983 25.004 15.52C25.5213 14.4226 25.8547 13.2706 25.9413 12.2933C25.9493 12.204 25.9653 12.132 25.9773 12.132ZM17.204 14.148C17.2173 14.1346 17.8893 14.292 18.256 14.3946C18.8067 14.5493 19.9787 14.9413 19.9787 14.972C19.9787 14.9773 19.8493 15.0906 19.692 15.2226C19.0587 15.752 18.4467 16.3066 17.7147 17.0133C17.5829 17.1454 17.4459 17.2721 17.304 17.3933C17.2947 17.3933 17.2907 17.3626 17.296 17.3266C17.4067 16.512 17.3827 15.4666 17.2293 14.4026C17.2142 14.319 17.2053 14.2343 17.2027 14.1493L17.204 14.148ZM31.3507 14.1613C31.36 14.172 31.0387 14.6746 30.8387 14.9613C30.5453 15.38 30.1227 15.9293 29.1573 17.144L27.8853 18.7466C27.7692 18.8973 27.6496 19.0454 27.5267 19.1906C27.5227 19.1906 27.46 19.1026 27.3893 18.996C26.8443 18.1827 26.1841 17.4528 25.4293 16.8293C25.3111 16.7302 25.1911 16.6333 25.0693 16.5386C25.0334 16.5145 25.0002 16.4863 24.9707 16.4546C24.9707 16.4413 25.7933 16.0893 26.4213 15.8333C27.638 15.3443 28.8736 14.9039 30.1253 14.5133C30.7147 14.3333 31.3413 14.1533 31.3507 14.1613ZM31.7213 14.2586C31.8185 14.2915 31.9112 14.3363 31.9973 14.392C33.173 15.0655 34.2604 15.8824 35.2347 16.824C35.4933 17.0773 36.124 17.7346 36.1147 17.74L35.6307 17.7786C33.5907 17.932 30.9827 18.3653 28.4707 18.9693C28.3 19.0093 28.1533 19.044 28.1427 19.044C28.1333 19.044 28.32 18.8573 28.5573 18.628C30.0333 17.2106 30.7053 16.316 31.4973 14.716C31.6147 14.4786 31.7147 14.272 31.7187 14.26H31.7213V14.2586ZM20.9373 15.3653C21.0053 15.3786 21.6347 15.672 22.1093 15.9093C22.5427 16.1266 23.2 16.4773 23.2333 16.508C23.2373 16.512 23.0067 16.632 22.7187 16.776C21.808 17.232 21.028 17.6613 20.2147 18.1586C19.9813 18.3013 19.788 18.4173 19.7813 18.4173C19.7613 18.4173 19.768 18.4 19.8987 18.1626C20.3489 17.3228 20.6801 16.4244 20.8827 15.4933C20.9013 15.4106 20.9227 15.36 20.9373 15.364V15.3653ZM20.304 15.4773C20.3173 15.4906 20.1547 16.0906 20.0507 16.4106C19.7689 17.2525 19.3956 18.0609 18.9373 18.8213L18.8173 19.0173L18.5467 18.7546C18.2833 18.4862 17.9791 18.2612 17.6453 18.088C17.5627 18.0507 17.4841 18.0051 17.4107 17.952C17.4107 17.912 18.2373 17.1613 18.8747 16.6213C19.332 16.2346 20.2933 15.4653 20.304 15.4773ZM24.1547 17.0613L24.3907 17.2146C24.9333 17.5666 25.5747 18.04 26.064 18.4466C26.3387 18.676 26.8707 19.1533 26.98 19.268L27.0387 19.3306L26.6467 19.44C24.6423 19.9866 22.6627 20.6201 20.7133 21.3386C20.4907 21.42 20.3 21.488 20.2867 21.488C20.2587 21.488 20.2307 21.5133 20.7307 21.0533C22.0107 19.876 23.14 18.5786 23.984 17.3173L24.1547 17.0613ZM23.1427 17.3146C23.1547 17.3266 22.4867 18.2613 22.0907 18.7893C21.616 19.42 20.7707 20.476 20.1893 21.1626C20.0409 21.3437 19.887 21.5202 19.728 21.692C19.7147 21.696 19.708 21.6253 19.7067 21.5146C19.7067 20.928 19.5573 20.3013 19.296 19.7706C19.1853 19.5466 19.1667 19.4933 19.1893 19.472C19.28 19.3893 20.692 18.584 21.5813 18.108C22.1933 17.78 23.132 17.3026 23.1427 17.3146ZM17.0227 18.8146C17.4101 19.0003 17.7737 19.2322 18.1053 19.5053C18.116 19.512 17.9893 19.616 17.8253 19.7346C17.3653 20.0666 16.6653 20.5933 16.2613 20.916C15.8347 21.256 15.82 21.2666 15.868 21.192C16.188 20.7026 16.348 20.4266 16.516 20.072C16.6667 19.7573 16.8147 19.384 16.9213 19.0586C16.9433 18.9727 16.9779 18.8905 17.024 18.8146H17.0227ZM18.6533 20.0946C18.676 20.0906 18.7067 20.132 18.8387 20.328C19.1147 20.7413 19.3267 21.2906 19.3813 21.7386L19.392 21.836L18.7293 22.092C17.5427 22.5533 16.448 23.008 15.708 23.3453C15.5013 23.4413 15.1373 23.6146 14.8987 23.7346C14.66 23.8546 14.4653 23.948 14.4653 23.9426C14.4653 23.9373 14.6147 23.824 14.7987 23.692C16.248 22.6386 17.4987 21.4866 18.4413 20.3333C18.5413 20.2106 18.6333 20.104 18.6453 20.096C18.6478 20.0946 18.6505 20.0936 18.6533 20.0933V20.0946ZM17.9013 20.2813C17.9213 20.3 17.3667 20.9266 16.9933 21.308C16.06 22.2613 15.132 23.008 13.9853 23.736C13.8413 23.828 13.7107 23.9093 13.692 23.92C13.6613 23.9386 13.7027 23.8906 14.2067 23.3413C14.524 22.996 14.7667 22.7093 15.044 22.3506C15.2253 22.1146 15.26 22.0813 15.5267 21.8893C16.2427 21.372 17.8827 20.2613 17.9013 20.28V20.2813ZM19.2333 4.99997C19.1267 4.98663 17.4053 5.60663 16.3 6.05463C14.8027 6.66397 13.6387 7.24663 12.9213 7.75063C12.6547 7.9373 12.3187 8.27463 12.2707 8.40397C12.2517 8.45656 12.2423 8.51208 12.2427 8.56797L12.8933 9.1813L14.4373 9.67463L18.116 10.3333L22.32 11.056L22.3627 10.696L22.3253 10.6893L21.772 10.6013L21.6587 10.404C21.0872 9.39582 20.5635 8.36135 20.0893 7.30397C19.8126 6.66849 19.5766 6.01606 19.3827 5.35063C19.292 5.02663 19.2827 5.00663 19.2333 4.99997ZM19.152 5.24797H19.1587C19.1627 5.25197 19.1813 5.38797 19.2013 5.54797C19.284 6.2253 19.436 6.8813 19.6733 7.58797C19.852 8.1213 19.8547 8.09063 19.6413 8.03063C19.148 7.8933 16.932 7.5133 15.3293 7.29063C15.1702 7.27034 15.0115 7.24678 14.8533 7.21997C14.8333 7.19997 16.0093 6.58397 16.5307 6.33997C17.1987 6.03063 19.02 5.2733 19.152 5.24797ZM14.4827 7.41863L14.6707 7.48263C15.7 7.83197 18.2787 8.3253 19.704 8.44263C19.864 8.45597 20 8.47063 20.004 8.47463C20.008 8.47863 19.8707 8.55197 19.7 8.6373C19.0133 8.9813 18.256 9.4013 17.732 9.7293C17.5787 9.8253 17.4387 9.90263 17.4187 9.9013C17.3429 9.89064 17.2673 9.87864 17.192 9.8653L17 9.83463L16.5133 9.3613C15.6587 8.53463 14.992 7.89463 14.7333 7.65463L14.4827 7.41863ZM14.292 7.57063L14.9733 8.4213C15.3493 8.88797 15.7253 9.3533 15.808 9.4533C15.892 9.5533 15.956 9.6373 15.952 9.63997C15.9333 9.65463 14.9653 9.46663 14.452 9.34797C14.0907 9.27118 13.7334 9.17685 13.3813 9.0653L13.1147 8.97997L13.116 8.91463C13.12 8.58797 13.532 8.1053 14.2307 7.6133L14.292 7.57063ZM20.0947 8.7293C20.1147 8.73063 20.1373 8.77197 20.1973 8.90397C20.3627 9.26663 20.8773 10.248 21.0013 10.4373C21.0413 10.5 21.108 10.504 20.424 10.3933C18.784 10.1293 18.252 10.04 18.252 10.0293C18.2854 10.0003 18.3226 9.97609 18.3627 9.9573C18.8858 9.66374 19.38 9.32133 19.8387 8.93463L20.072 8.73863C20.08 8.73197 20.088 8.72797 20.0947 8.7293ZM25.84 19.94L19.4293 22.0306L13.856 24.492L12.296 24.9053C11.8987 25.2813 11.4787 25.6626 11.032 26.052C10.5387 26.48 10.0773 26.868 9.72533 27.148C9.26478 27.5289 8.8395 27.9506 8.45467 28.408C8.012 28.96 7.66533 29.5466 7.516 29.9986C7.24933 30.812 7.37867 31.636 7.896 32.396C8.556 33.3666 9.86933 34.3533 11.396 35.0253C12.176 35.3666 13.4893 35.8093 14.476 36.0573C16.12 36.4733 19.2947 36.924 21.044 36.9906C21.3987 37.004 21.8707 37.004 21.8933 36.988C21.9307 36.9626 22.204 36.448 22.52 35.8013C23.5947 33.6066 24.372 31.548 24.7907 29.7906C25.044 28.7253 25.2413 27.3066 25.3693 25.624C25.4053 25.152 25.4187 23.58 25.3907 23.0453C25.3574 22.2827 25.2759 21.5229 25.1467 20.7706C25.1298 20.7054 25.1243 20.6377 25.1307 20.5706C25.1493 20.5573 25.2093 20.5373 25.9973 20.308L25.84 19.94ZM24.3733 20.8C24.4333 20.8 24.5867 22.2853 24.628 23.2266C24.636 23.428 24.6347 23.556 24.6227 23.556C24.5853 23.556 23.8027 23.096 23.2467 22.748C22.722 22.4175 22.2054 22.0742 21.6973 21.7186C21.6507 21.6813 21.656 21.68 22.052 21.544C22.7253 21.312 24.324 20.8 24.3747 20.8H24.3733ZM21.1093 21.8706C21.1493 21.8706 21.2627 21.9333 21.5293 22.1C22.5293 22.7266 23.884 23.48 24.4627 23.7333C24.644 23.8133 24.664 23.7813 24.2493 24.0626C23.3667 24.6626 22.268 25.252 20.92 25.852C20.7744 25.9186 20.6273 25.9817 20.4787 26.0413C20.4885 25.9507 20.5077 25.8613 20.536 25.7746C20.8627 24.568 21.0467 23.348 21.052 22.3693C21.0547 21.8866 21.0547 21.884 21.1013 21.872H21.1093V21.8706ZM20.4373 22.128C20.4653 22.1573 20.4453 23.24 20.4107 23.536C20.3091 24.3693 20.1224 25.1901 19.8533 25.9853C19.8347 26.008 19.172 25.3613 18.952 25.1053C18.6036 24.7102 18.3041 24.2747 18.06 23.808C17.9507 23.592 17.7747 23.1626 17.7907 23.1506C17.8653 23.0973 20.4187 22.1106 20.4373 22.128ZM17.2707 23.376C17.276 23.376 17.2813 23.3773 17.284 23.3813C17.3136 23.4374 17.3385 23.4958 17.3587 23.556C17.5133 23.976 17.86 24.5986 18.1613 24.996C18.5562 25.5188 19.0113 25.9932 19.5173 26.4093C19.548 26.436 19.5573 26.4306 18.768 26.7293C17.7575 27.1103 16.7376 27.466 15.7093 27.796C15.2733 27.9373 14.904 28.056 14.8893 28.0626C14.8453 28.0773 14.8587 28.0506 14.9867 27.852C15.556 26.964 16.4173 25.2253 16.9 23.996C16.9827 23.7826 17.0627 23.5693 17.0773 23.5213C17.0973 23.452 17.1187 23.428 17.184 23.3986C17.2108 23.3846 17.2404 23.3768 17.2707 23.376ZM16.3 23.776C16.3133 23.788 16.068 24.3066 15.8253 24.7773C15.3573 25.692 14.84 26.592 14.1547 27.6906L13.912 28.0746C13.888 28.1106 13.8773 28.0986 13.8027 27.9493C13.6284 27.5935 13.5028 27.2159 13.4293 26.8266C13.3608 26.347 13.3698 25.8594 13.456 25.3826C13.5187 25.08 13.516 25.0866 13.6587 25.0146C14.2747 24.6986 16.28 23.7586 16.3 23.776ZM24.6573 24.116V24.3213C24.6436 25.6577 24.5299 26.9912 24.3173 28.3106C23.4381 28.0569 22.5895 27.7072 21.7867 27.268C21.3147 27.0093 20.6333 26.592 20.6533 26.572C20.6573 26.5666 20.8587 26.4613 21.0987 26.336C22.0507 25.8426 22.9587 25.3093 23.7493 24.7813C24.0453 24.584 24.4893 24.2626 24.588 24.176L24.6573 24.116ZM12.6413 25.5466C12.6613 25.5466 12.656 25.584 12.6253 25.7613C12.5989 25.9337 12.5807 26.1072 12.5707 26.2813C12.5307 26.9906 12.6467 27.5133 12.9973 28.228C13.096 28.428 13.1733 28.5933 13.1693 28.596C13.1333 28.6266 9.92933 29.564 8.92133 29.84L8.34133 30C8.30533 30.0106 8.30267 30.0026 8.31467 29.92C8.42533 29.2093 8.968 28.2773 9.72533 27.4933C10.2293 26.9733 10.632 26.664 11.3187 26.2733C11.7551 26.023 12.196 25.7807 12.6413 25.5466ZM20.2 26.9C20.2027 26.8973 20.3213 26.96 20.4627 27.0426C21.4987 27.6413 22.9427 28.2026 24.1733 28.484L24.2853 28.5106L24.132 28.5946C23.4893 28.952 21.3707 29.8333 19.2067 30.644C18.9783 30.7293 18.7503 30.8155 18.5227 30.9026C18.4881 30.9196 18.4513 30.9317 18.4133 30.9386C18.4133 30.9333 18.5027 30.7626 18.612 30.5573C19.22 29.4213 19.8253 28.0413 20.1373 27.084C20.168 26.9866 20.196 26.904 20.2 26.9ZM19.4293 27.1533C19.4062 27.2301 19.3782 27.3054 19.3453 27.3786C18.8535 28.5403 18.292 29.6712 17.664 30.7653C17.5574 30.9608 17.4453 31.1533 17.328 31.3426C17.3213 31.3426 17.176 31.2546 17.0027 31.1493C15.976 30.52 15.0667 29.7466 14.4693 28.9933L14.384 28.8866L14.8267 28.7653C16.2777 28.3772 17.6991 27.8857 19.08 27.2946C19.2693 27.2146 19.4267 27.1493 19.4293 27.1533ZM24.216 28.824C24.2173 28.824 24.2187 28.8253 24.2187 28.828C24.2187 28.9346 23.9747 29.932 23.7707 30.6546C23.6 31.2586 23.456 31.732 23.1907 32.5706C23.123 32.7969 23.0483 33.021 22.9667 33.2426C21.598 33.0087 20.2575 32.6329 18.9667 32.1213C18.6773 32.008 18.393 31.8822 18.1147 31.744C18.1067 31.7346 18.3987 31.5973 18.7627 31.4373C20.9693 30.476 23.2547 29.38 24.036 28.9093C24.0906 28.8706 24.1515 28.8417 24.216 28.824ZM13.1667 29.2013C13.1787 29.2133 12.5613 30.096 11.7 31.3026L10.9173 32.4C10.788 32.5853 10.5907 32.8773 10.4787 33.0506L10.2747 33.3653L10.0587 33.1826C9.804 32.9693 9.35867 32.5146 9.156 32.2626C8.74 31.744 8.45867 31.1986 8.34667 30.6973C8.296 30.4653 8.29333 30.348 8.34267 30.3333C9.20107 30.1262 10.0606 29.924 10.9213 29.7266L12.6547 29.32C12.9333 29.2533 13.164 29.2 13.1667 29.2013ZM13.7867 29.4386L13.9427 29.6133C14.5942 30.353 15.3626 30.9809 16.2173 31.472C16.3707 31.56 16.4867 31.6373 16.4773 31.6426C14.5585 32.3383 12.6339 33.0183 10.704 33.6826C10.6709 33.6629 10.6389 33.6416 10.608 33.6186L10.5187 33.5546L10.6587 33.352C11.112 32.6946 11.6827 31.972 12.932 30.4693L13.7867 29.4386ZM17.6533 32.2026C17.6573 32.1986 17.8733 32.2746 18.136 32.3733C18.7667 32.6093 19.2613 32.7626 19.932 32.9306C20.7547 33.1373 21.9453 33.344 22.6493 33.4026C22.756 33.4106 22.812 33.424 22.796 33.4346C22.7627 33.456 22.0493 33.6933 21.5253 33.8586C19.4706 34.4837 17.4101 35.0895 15.344 35.676C15.2973 35.6853 15.1347 35.6426 15.1347 35.6226C15.1347 35.6106 15.2507 35.464 15.392 35.2946C16.097 34.4504 16.7541 33.5672 17.36 32.6493C17.4573 32.5001 17.555 32.3512 17.6533 32.2026ZM16.7973 32.2266C16.804 32.2333 16.46 32.784 15.856 33.736C15.6 34.1373 15.3107 34.596 15.212 34.752C15.112 34.9093 14.9667 35.1493 14.8893 35.2853L14.7467 35.532L14.6747 35.5133C14.5013 35.4666 13.276 35.0333 12.9533 34.9053C12.552 34.7453 12.1333 34.5533 11.8253 34.3866C11.44 34.1786 10.952 33.8693 10.9893 33.8573L12.4627 33.4546C14.5853 32.876 15.76 32.544 16.5293 32.3026C16.6747 32.2586 16.7947 32.224 16.796 32.2266H16.7973ZM22.828 33.6413H22.836C22.856 33.692 22.0693 35.868 21.7827 36.5586C21.7173 36.7133 21.6947 36.752 21.66 36.7493C21.022 36.6687 20.385 36.5798 19.7493 36.4826C18.5413 36.2986 16.5187 35.9453 16.008 35.8293L15.8893 35.8026L16.6133 35.64C18.1653 35.2906 18.9107 35.1026 19.6667 34.8706C20.6411 34.5707 21.5936 34.2036 22.5173 33.772C22.668 33.7026 22.7973 33.648 22.828 33.6413Z" fill="#D72D29"/>
</g>
<defs>
<clipPath id="clip0">
<rect width="32" height="32" fill="white" transform="translate(6 5)"/>
</clipPath>
</defs>
</svg>
