<svg width="33" height="33" viewBox="0 0 33 33" fill="none" xmlns="http://www.w3.org/2000/svg">
<path d="M28.5 13.5C28.2348 13.5 27.9804 13.6054 27.7929 13.7929C27.6054 13.9804 27.5 14.2348 27.5 14.5V22.5C27.5 22.7652 27.3946 23.0196 27.2071 23.2071C27.0196 23.3946 26.7652 23.5 26.5 23.5H6.5C6.23478 23.5 5.98043 23.3946 5.79289 23.2071C5.60536 23.0196 5.5 22.7652 5.5 22.5V14.5C5.5 14.2348 5.39464 13.9804 5.20711 13.7929C5.01957 13.6054 4.76522 13.5 4.5 13.5C4.23478 13.5 3.98043 13.6054 3.79289 13.7929C3.60536 13.9804 3.5 14.2348 3.5 14.5V22.5C3.5007 23.2954 3.81723 24.0579 4.38 24.62C4.94207 25.1828 5.70462 25.4993 6.5 25.5H26.5C27.2954 25.4993 28.0579 25.1828 28.62 24.62C29.1828 24.0579 29.4993 23.2954 29.5 22.5V14.5C29.5 14.2348 29.3946 13.9804 29.2071 13.7929C29.0196 13.6054 28.7652 13.5 28.5 13.5Z" fill="white"/>
<path d="M15.9 19.3C16.0731 19.4298 16.2836 19.5 16.5 19.5C16.7164 19.5 16.9269 19.4298 17.1 19.3L28.91 10.44C29.0942 10.3011 29.2248 10.1027 29.2794 9.87852C29.3341 9.65434 29.3096 9.41815 29.21 9.21C29.0611 8.90232 28.8616 8.62177 28.62 8.38C28.0579 7.81723 27.2954 7.5007 26.5 7.5H6.5C5.70461 7.5007 4.94207 7.81723 4.38 8.38C4.13835 8.62177 3.93892 8.90232 3.79 9.21C3.69041 9.41815 3.66588 9.65434 3.72056 9.87852C3.77524 10.1027 3.90576 10.3011 4.09 10.44L15.9 19.3ZM6.5 9.5H26.5C26.5928 9.48539 26.6872 9.48539 26.78 9.5L16.5 17.25L6.22 9.5C6.31276 9.48539 6.40723 9.48539 6.5 9.5Z" fill="white"/>
</svg>
