<svg width="42" height="42" viewBox="0 0 42 42" fill="none" xmlns="http://www.w3.org/2000/svg">
<rect width="42" height="42" rx="4" fill="white"/>
<path d="M20.4299 5C20.1948 5 20.0168 5.00173 19.952 5.00893C19.8832 5.016 19.6642 5.03693 19.4672 5.05267C14.9222 5.4624 10.665 7.9144 7.96858 11.6831C6.46712 13.7787 5.50685 16.1555 5.14418 18.6733C5.01592 19.552 5.00018 19.8116 5.00018 21.0032C5.00018 22.1948 5.01618 22.4544 5.14418 23.3333C6.01352 29.3413 10.2896 34.3892 16.0891 36.2593C17.1277 36.5941 18.2225 36.8224 19.4674 36.96C19.9522 37.0133 22.0479 37.0133 22.5327 36.96C24.6817 36.7223 26.5023 36.1907 28.2977 35.2743C28.573 35.1335 28.6262 35.096 28.5887 35.0645C28.5637 35.046 27.3904 33.4728 25.983 31.5712L23.4243 28.1152L20.2181 23.3708C18.4539 20.7623 17.0024 18.6295 16.9899 18.6295C16.9774 18.626 16.965 20.7344 16.9586 23.3081C16.9496 27.8151 16.9462 27.9964 16.8898 28.1028C16.8085 28.2561 16.7458 28.3185 16.6146 28.3873C16.5146 28.4372 16.4268 28.4467 15.9546 28.4467H15.4132L15.2695 28.356C15.1804 28.3002 15.108 28.2213 15.0599 28.1277L14.9942 27.9869L15.0013 21.7163L15.0102 15.4424L15.107 15.3204C15.1571 15.2547 15.2635 15.1704 15.3385 15.1297C15.4667 15.0671 15.5168 15.0608 16.0579 15.0608C16.6962 15.0608 16.8025 15.0857 16.9682 15.2671C17.0153 15.3173 18.7512 17.932 20.8282 21.0815C22.9311 24.2692 25.0353 27.4562 27.1407 30.6423L29.6743 34.4799L29.8023 34.3955C30.9381 33.6573 32.139 32.6064 33.0899 31.5119C35.1138 29.188 36.4183 26.3545 36.8562 23.3332C36.9843 22.4544 36.9999 22.1945 36.9999 21.0032C36.9999 19.8116 36.9839 19.552 36.8562 18.6731C35.9866 12.6651 31.7106 7.6172 25.9113 5.74707C24.8883 5.41547 23.7998 5.18707 22.5799 5.04947C22.3546 5.026 21.1353 5.00067 20.4302 5.00013L20.4299 5ZM25.8546 14.6227C26.3176 14.6227 26.3988 14.6297 26.5022 14.6853C26.6524 14.7603 26.7742 14.9043 26.8182 15.0543C26.843 15.1356 26.8494 16.8747 26.843 20.7935L26.8341 26.4168L25.8426 24.8968L24.8478 23.3768V19.2888C24.8478 16.6461 24.8602 15.1604 24.879 15.0885C24.929 14.9135 25.0385 14.7757 25.1887 14.6945C25.3168 14.6287 25.3638 14.6225 25.855 14.6225L25.8546 14.6227Z" fill="black"/>
</svg>
