<svg width="32" height="32" viewBox="0 0 32 32" fill="none" xmlns="http://www.w3.org/2000/svg">
<path d="M30.72 -6.10352e-05H1.28C0.572 -6.10352e-05 0 0.571939 0 1.27994V30.7199C0 31.4279 0.572 31.9999 1.28 31.9999H30.72C31.428 31.9999 32 31.4279 32 30.7199V1.27994C32 0.571939 31.428 -6.10352e-05 30.72 -6.10352e-05ZM9.492 27.2679H4.744V11.9959H9.492V27.2679ZM7.12 9.90794C6.57571 9.90794 6.04363 9.74654 5.59107 9.44414C5.13851 9.14175 4.78578 8.71195 4.57748 8.20908C4.36919 7.70622 4.31469 7.15289 4.42088 6.61905C4.52707 6.08521 4.78917 5.59485 5.17404 5.20998C5.55892 4.82511 6.04928 4.563 6.58311 4.45682C7.11695 4.35063 7.67028 4.40513 8.17314 4.61342C8.67601 4.82171 9.10581 5.17445 9.4082 5.62701C9.7106 6.07957 9.872 6.61164 9.872 7.15594C9.868 8.67594 8.636 9.90794 7.12 9.90794ZM27.268 27.2679H22.524V19.8399C22.524 18.0679 22.492 15.7919 20.056 15.7919C17.588 15.7919 17.208 17.7199 17.208 19.7119V27.2679H12.468V11.9959H17.02V14.0839H17.084C17.716 12.8839 19.264 11.6159 21.576 11.6159C26.384 11.6159 27.268 14.7799 27.268 18.8919V27.2679Z" fill="white"/>
</svg>
