<svg width="32" height="32" viewBox="0 0 32 32" fill="none" xmlns="http://www.w3.org/2000/svg">
<g clip-path="url(#clip0)">
<path d="M31.344 0.00401357C25.0973 -0.107986 17.9733 3.15735 13.464 8.22268C9.15462 8.30401 4.95862 10.0707 1.86929 13.16C1.68929 13.3373 1.62529 13.6027 1.70395 13.8427C1.78395 14.084 1.99195 14.2587 2.24262 14.2947L7.38128 15.0307L6.74662 15.7413C6.51062 16.0053 6.52262 16.4067 6.77328 16.6573L15.3426 25.2267C15.472 25.356 15.6426 25.4213 15.8146 25.4213C15.9733 25.4213 16.132 25.3653 16.2586 25.252L16.9693 24.6173L17.7053 29.756C17.7413 30.0067 17.9386 30.1907 18.1773 30.2707C18.2386 30.2907 18.3026 30.3 18.368 30.3C18.5573 30.3 18.7506 30.2173 18.884 30.0853C21.9306 27.0387 23.6973 22.8427 23.7786 18.5333C28.8493 14.0147 32.1413 6.89335 31.996 0.65468C31.9866 0.300014 31.7 0.0133469 31.344 0.00401357ZM25.2 11.5133C24.5506 12.1627 23.6973 12.488 22.8426 12.488C21.988 12.488 21.1346 12.1627 20.4853 11.5133C19.1866 10.2133 19.1866 8.09868 20.4853 6.79868C21.7853 5.49868 23.9 5.49868 25.2 6.79868C26.5 8.09868 26.5 10.2147 25.2 11.5133Z" fill="white"/>
<path d="M3.63202 22.54C2.20535 23.9667 0.246682 30.412 0.0280155 31.1413C-0.0426512 31.376 0.0226822 31.6307 0.194682 31.804C0.322682 31.932 0.492016 32 0.666682 32C0.730682 32 0.794682 31.9907 0.858682 31.972C1.58802 31.7533 8.03335 29.7947 9.46002 28.368C11.0667 26.7613 11.0667 24.1467 9.46002 22.54C7.85202 20.9333 5.23868 20.9347 3.63202 22.54Z" fill="white"/>
</g>
<defs>
<clipPath id="clip0">
<rect width="32" height="32" fill="white"/>
</clipPath>
</defs>
</svg>
