<svg width="32" height="32" viewBox="0 0 32 32" fill="none" xmlns="http://www.w3.org/2000/svg">
<path d="M15.4299 0C15.1948 0 15.0168 0.00173333 14.952 0.00893333C14.8832 0.016 14.6642 0.0369333 14.4672 0.0526667C9.92218 0.4624 5.66498 2.9144 2.96858 6.68307C1.46712 8.77867 0.50685 11.1555 0.144183 13.6733C0.0159164 14.552 0.000183105 14.8116 0.000183105 16.0032C0.000183105 17.1948 0.0161831 17.4544 0.144183 18.3333C1.01352 24.3413 5.28965 29.3892 11.0891 31.2593C12.1277 31.5941 13.2225 31.8224 14.4674 31.96C14.9522 32.0133 17.0479 32.0133 17.5327 31.96C19.6817 31.7223 21.5023 31.1907 23.2977 30.2743C23.573 30.1335 23.6262 30.096 23.5887 30.0645C23.5637 30.046 22.3904 28.4728 20.983 26.5712L18.4243 23.1152L15.2181 18.3708C13.4539 15.7623 12.0024 13.6295 11.9899 13.6295C11.9774 13.626 11.965 15.7344 11.9586 18.3081C11.9496 22.8151 11.9462 22.9964 11.8898 23.1028C11.8085 23.2561 11.7458 23.3185 11.6146 23.3873C11.5146 23.4372 11.4268 23.4467 10.9546 23.4467H10.4132L10.2695 23.356C10.1804 23.3002 10.108 23.2213 10.0599 23.1277L9.99418 22.9869L10.0013 16.7163L10.0102 10.4424L10.107 10.3204C10.1571 10.2547 10.2635 10.1704 10.3385 10.1297C10.4667 10.0671 10.5168 10.0608 11.0579 10.0608C11.6962 10.0608 11.8025 10.0857 11.9682 10.2671C12.0153 10.3173 13.7512 12.932 15.8282 16.0815C17.9311 19.2692 20.0353 22.4562 22.1407 25.6423L24.6743 29.4799L24.8023 29.3955C25.9381 28.6573 27.139 27.6064 28.0899 26.5119C30.1138 24.188 31.4183 21.3545 31.8562 18.3332C31.9843 17.4544 31.9999 17.1945 31.9999 16.0032C31.9999 14.8116 31.9839 14.552 31.8562 13.6731C30.9866 7.66507 26.7106 2.6172 20.9113 0.747067C19.8883 0.415467 18.7998 0.187067 17.5799 0.0494667C17.3546 0.026 16.1353 0.000666667 15.4302 0.000133333L15.4299 0ZM20.8546 9.62267C21.3176 9.62267 21.3988 9.62973 21.5022 9.68533C21.6524 9.76027 21.7742 9.90427 21.8182 10.0543C21.843 10.1356 21.8494 11.8747 21.843 15.7935L21.8341 21.4168L20.8426 19.8968L19.8478 18.3768V14.2888C19.8478 11.6461 19.8602 10.1604 19.879 10.0885C19.929 9.91347 20.0385 9.77573 20.1887 9.69453C20.3168 9.62867 20.3638 9.62253 20.855 9.62253L20.8546 9.62267Z" fill="white"/>
</svg>
