<svg width="32" height="32" viewBox="0 0 32 32" fill="none" xmlns="http://www.w3.org/2000/svg">
<g clip-path="url(#clip0)">
<path d="M15.9973 32C15.5693 32 15.1427 31.888 14.768 31.6706L10.8533 29.3546C10.2693 29.028 10.5547 28.912 10.7467 28.844C11.5267 28.5733 11.684 28.5106 12.5173 28.0386C12.604 27.9893 12.7187 28.008 12.808 28.0613L15.816 29.8466C15.9253 29.9066 16.0787 29.9066 16.1787 29.8466L27.9053 23.0786C28.0147 23.016 28.084 22.8906 28.084 22.7613V9.22797C28.084 9.09597 28.0133 8.97197 27.9013 8.9053L16.18 2.14263C16.072 2.07997 15.928 2.07997 15.8187 2.14263L4.1 8.90663C3.98667 8.97197 3.91467 9.09997 3.91467 9.22797V22.7613C3.91467 22.8906 3.98667 23.0133 4.1 23.0746L7.312 24.9306C9.05467 25.8026 10.1227 24.776 10.1227 23.744V10.3826C10.1227 10.1933 10.2747 10.0453 10.464 10.0453H11.9507C12.136 10.0453 12.2907 10.1946 12.2907 10.3826V23.744C12.2907 26.0706 11.024 27.404 8.81867 27.404C8.14134 27.404 7.60667 27.404 6.11734 26.6693L3.04 24.9C2.28 24.4613 1.81067 23.64 1.81067 22.7613V9.22797C1.81067 8.3493 2.28134 7.52797 3.04 7.09063L14.7667 0.314634C15.5093 -0.105366 16.4947 -0.105366 17.2307 0.314634L28.956 7.09063C29.716 7.5293 30.188 8.3493 30.188 9.22797V22.7613C30.188 23.64 29.716 24.4586 28.956 24.9L17.2307 31.6706C16.8573 31.888 16.432 32 15.9973 32ZM25.4653 18.6573C25.4653 16.124 23.7533 15.4493 20.1493 14.9733C16.508 14.492 16.1373 14.2426 16.1373 13.3906C16.1373 12.6866 16.4507 11.7466 19.148 11.7466C21.5573 11.7466 22.4453 12.2653 22.8107 13.8893C22.8427 14.0426 22.9827 14.1546 23.14 14.1546H24.6613C24.756 14.1546 24.8453 14.1133 24.9093 14.0466C24.9733 13.9746 25.008 13.8826 24.9987 13.7853C24.7627 10.988 22.904 9.68397 19.148 9.68397C15.804 9.68397 13.8093 11.0946 13.8093 13.4613C13.8093 16.028 15.7933 16.7373 19.0027 17.0546C22.8427 17.4306 23.14 17.992 23.14 18.7466C23.14 20.0573 22.088 20.616 19.6173 20.616C16.5147 20.616 15.832 19.8373 15.6027 18.2933C15.576 18.128 15.4347 18.0066 15.2653 18.0066H13.7493C13.5613 18.0066 13.4107 18.156 13.4107 18.344C13.4107 20.32 14.4853 22.6746 19.6173 22.6746C23.3347 22.676 25.4653 21.2133 25.4653 18.6573Z" fill="white"/>
</g>
<defs>
<clipPath id="clip0">
<rect width="32" height="32" fill="white"/>
</clipPath>
</defs>
</svg>
