<svg width="32" height="32" viewBox="0 0 32 32" fill="none" xmlns="http://www.w3.org/2000/svg">
<path d="M16 0C24.836 0 32 7.164 32 16C32 24.836 24.836 32 16 32C7.164 32 0 24.836 0 16C0 7.164 7.164 0 16 0ZM12.82 21.3307C13.0533 22.1907 13.028 22.9947 12.788 23.72L12.7013 23.96C12.6693 24.0413 12.632 24.12 12.5973 24.1947C12.4107 24.5813 12.1627 24.9413 11.8573 25.2747C10.9267 26.2867 9.628 26.6707 9.07067 26.348C8.47067 25.9987 8.76933 24.568 9.84933 23.428C11.0107 22.204 12.676 21.416 12.676 21.416V21.412L12.82 21.3307ZM26.0347 6.84933C25.312 4.00533 20.5987 3.07067 16.1387 4.656C13.4867 5.59867 10.6133 7.08 8.548 9.012C6.09067 11.3067 5.7 13.3067 5.86133 14.1427C6.43067 17.0907 10.4707 19.0187 12.132 20.4493V20.4573C11.6427 20.6973 8.05733 22.496 7.21733 24.3573C6.31733 26.3173 7.35733 27.7187 8.03733 27.8973C10.1373 28.4787 12.2973 27.4173 13.4573 25.6987C14.5773 24.0173 14.4787 21.8573 13.996 20.7973C14.6573 20.6173 15.436 20.5373 16.436 20.6587C19.2373 20.9787 19.7973 22.7387 19.676 23.4587C19.556 24.1773 18.9787 24.5973 18.7773 24.7173C18.5773 24.8387 18.5173 24.8773 18.536 24.9587C18.556 25.0787 18.6573 25.0787 18.816 25.0587C19.036 25.0187 20.2773 24.4587 20.3373 23.0973C20.3973 21.3773 18.756 19.4587 15.8373 19.4973C14.6373 19.5187 13.876 19.6187 13.3373 19.8387C13.2973 19.7787 13.256 19.7387 13.1973 19.6987C11.3973 17.7587 8.05733 16.3987 8.19733 13.8187C8.23733 12.8787 8.57733 10.4 14.5973 7.4C19.5373 4.93867 23.4787 5.62 24.1587 7.12C25.136 9.25867 22.0573 13.24 16.9173 13.8187C14.9573 14.0387 13.9373 13.28 13.676 12.9987C13.3973 12.6987 13.3573 12.6787 13.2573 12.74C13.0973 12.82 13.1973 13.08 13.2573 13.24C13.4173 13.64 14.0373 14.34 15.1187 14.7C16.0573 15 18.3587 15.1787 21.1187 14.1C24.2173 12.9013 26.6373 9.56 25.9373 6.76L26.0347 6.84933Z" fill="white"/>
</svg>
