<svg width="32" height="32" viewBox="0 0 32 32" fill="none" xmlns="http://www.w3.org/2000/svg">
<g clip-path="url(#clip0)">
<path d="M6.29867 3.33997C6.29867 3.33997 6.192 3.5093 6.29333 3.75997C6.35467 3.91463 6.54133 4.1013 6.74667 4.29863C6.74667 4.29863 8.9 6.39997 9.164 6.70397C10.3573 8.0813 10.876 9.4373 10.924 11.308C10.9533 12.508 10.7227 13.564 10.16 14.792C9.152 16.9906 7.02667 19.416 3.74667 22.112L4.22667 21.952C4.53733 21.7213 4.95733 21.4733 5.94933 20.9306C8.23333 19.6826 10.7973 18.5333 13.948 17.3493C18.48 15.6466 25.9347 13.648 30.1773 12.9986L30.6187 12.9306L30.552 12.824C30.1627 12.2213 29.8987 11.8493 29.5787 11.4546C28.6493 10.304 27.5227 9.3653 26.1427 8.5933C24.2467 7.53063 21.7867 6.7053 18.676 6.08663C17.705 5.90405 16.7311 5.73736 15.7547 5.58663C14.008 5.31876 12.2639 5.0343 10.5227 4.7333C9.956 4.6333 9.10933 4.49197 8.548 4.37063C8.11512 4.27866 7.68741 4.16383 7.26667 4.02663C6.90933 3.88663 6.40667 3.75063 6.29867 3.33997ZM7.54667 4.55197C7.55067 4.5493 7.63067 4.57463 7.72933 4.60797C7.91067 4.6693 8.15067 4.7413 8.43067 4.81997C8.62533 4.8733 8.84 4.93197 9.06933 4.9893C9.36 5.06397 9.60133 5.12797 9.604 5.13197C9.636 5.16797 10.1253 6.7293 10.292 7.32797C10.356 7.5573 10.404 7.74797 10.4 7.75197C10.3535 7.69415 10.3133 7.63158 10.28 7.5653C9.71467 6.57063 8.81733 5.55863 7.78133 4.74397C7.70079 4.68285 7.62252 4.61881 7.54667 4.55197ZM9.93333 5.21063C9.95733 5.2093 10.0653 5.22663 10.1933 5.25597C11.0187 5.4373 12.4933 5.72263 13.44 5.88263C13.5987 5.9093 13.728 5.93597 13.728 5.9453C13.6894 5.97997 13.6452 6.00791 13.5973 6.02797C13.4387 6.10797 12.7947 6.4933 12.58 6.6373C12.0427 6.9973 11.5587 7.38263 11.2067 7.73197C11.1213 7.81952 11.0337 7.90488 10.944 7.98797C10.94 7.98797 10.9147 7.9053 10.8893 7.8053C10.6629 6.99319 10.3731 6.20009 10.0227 5.4333C9.98747 5.36159 9.95588 5.28816 9.928 5.2133C9.928 5.21197 9.928 5.21063 9.93333 5.21063ZM14.1293 6.00797C14.156 6.0173 14.2093 6.1813 14.3013 6.54663C14.5138 7.4081 14.5828 8.29873 14.5053 9.18263L14.4893 9.2333L14.24 9.1533C13.7227 8.98797 12.88 8.73997 12.1573 8.53997C11.9052 8.47545 11.6561 8.39982 11.4107 8.3133C11.4107 8.28397 12.0093 7.6853 12.2667 7.4573C12.7587 7.02263 14.0827 5.9933 14.1293 6.00797ZM14.4627 6.05597C14.4773 6.04263 16.468 6.38663 17.372 6.55997C18.0467 6.6893 19.0213 6.8933 19.08 6.91863C19.1093 6.9293 19.008 6.9853 18.684 7.13197C17.404 7.70797 16.4547 8.2253 15.5107 8.85597C15.2627 9.0213 15.056 9.1573 15.052 9.1573C15.0467 9.1573 15.044 9.01863 15.044 8.85063C15.044 7.93063 14.8587 7.0013 14.5227 6.21597C14.4977 6.16462 14.4776 6.11105 14.4627 6.05597ZM19.6093 7.07463C19.624 7.0893 19.5587 7.48263 19.5027 7.71463C19.3267 8.43463 18.86 9.50663 18.284 10.5133C18.2235 10.6268 18.1558 10.7364 18.0813 10.8413C17.9799 10.7983 17.8823 10.747 17.7893 10.688C17.2267 10.3586 16.5893 10.048 15.8893 9.75863C15.764 9.70939 15.6404 9.65603 15.5187 9.59863C15.4867 9.5693 17.0427 8.53863 17.868 8.04397C18.528 7.64797 19.5907 7.05597 19.6093 7.07463ZM19.9773 7.13197C20.0213 7.13197 20.904 7.37197 21.36 7.5093C22.4973 7.8493 23.8093 8.32797 24.66 8.71463L25.0133 8.87463L24.764 8.93197C22.6827 9.41197 20.8973 9.96263 19.18 10.66C19.0373 10.7186 18.9133 10.7666 18.904 10.7666C18.9282 10.681 18.9617 10.5983 19.004 10.52C19.5213 9.42263 19.8547 8.27063 19.9413 7.2933C19.9493 7.20397 19.9653 7.13197 19.9773 7.13197ZM11.204 9.14797C11.2173 9.13463 11.8893 9.29197 12.256 9.39463C12.8067 9.5493 13.9787 9.9413 13.9787 9.97197C13.9787 9.9773 13.8493 10.0906 13.692 10.2226C13.0587 10.752 12.4467 11.3066 11.7147 12.0133C11.5829 12.1454 11.4459 12.2721 11.304 12.3933C11.2947 12.3933 11.2907 12.3626 11.296 12.3266C11.4067 11.512 11.3827 10.4666 11.2293 9.40263C11.2142 9.31896 11.2053 9.23429 11.2027 9.1493L11.204 9.14797ZM25.3507 9.1613C25.36 9.17197 25.0387 9.67463 24.8387 9.9613C24.5453 10.38 24.1227 10.9293 23.1573 12.144L21.8853 13.7466C21.7692 13.8973 21.6496 14.0454 21.5267 14.1906C21.5227 14.1906 21.46 14.1026 21.3893 13.996C20.8443 13.1827 20.1841 12.4528 19.4293 11.8293C19.3111 11.7302 19.1911 11.6333 19.0693 11.5386C19.0334 11.5145 19.0002 11.4863 18.9707 11.4546C18.9707 11.4413 19.7933 11.0893 20.4213 10.8333C21.638 10.3443 22.8736 9.90393 24.1253 9.5133C24.7147 9.3333 25.3413 9.1533 25.3507 9.1613ZM25.7213 9.25863C25.8185 9.29149 25.9112 9.33628 25.9973 9.39197C27.173 10.0655 28.2604 10.8824 29.2347 11.824C29.4933 12.0773 30.124 12.7346 30.1147 12.74L29.6307 12.7786C27.5907 12.932 24.9827 13.3653 22.4707 13.9693C22.3 14.0093 22.1533 14.044 22.1427 14.044C22.1333 14.044 22.32 13.8573 22.5573 13.628C24.0333 12.2106 24.7053 11.316 25.4973 9.71597C25.6147 9.47863 25.7147 9.27197 25.7187 9.25997H25.7213V9.25863ZM14.9373 10.3653C15.0053 10.3786 15.6347 10.672 16.1093 10.9093C16.5427 11.1266 17.2 11.4773 17.2333 11.508C17.2373 11.512 17.0067 11.632 16.7187 11.776C15.808 12.232 15.028 12.6613 14.2147 13.1586C13.9813 13.3013 13.788 13.4173 13.7813 13.4173C13.7613 13.4173 13.768 13.4 13.8987 13.1626C14.3489 12.3228 14.6801 11.4244 14.8827 10.4933C14.9013 10.4106 14.9227 10.36 14.9373 10.364V10.3653ZM14.304 10.4773C14.3173 10.4906 14.1547 11.0906 14.0507 11.4106C13.7689 12.2525 13.3956 13.0609 12.9373 13.8213L12.8173 14.0173L12.5467 13.7546C12.2833 13.4862 11.9791 13.2612 11.6453 13.088C11.5627 13.0507 11.4841 13.0051 11.4107 12.952C11.4107 12.912 12.2373 12.1613 12.8747 11.6213C13.332 11.2346 14.2933 10.4653 14.304 10.4773ZM18.1547 12.0613L18.3907 12.2146C18.9333 12.5666 19.5747 13.04 20.064 13.4466C20.3387 13.676 20.8707 14.1533 20.98 14.268L21.0387 14.3306L20.6467 14.44C18.6423 14.9866 16.6627 15.6201 14.7133 16.3386C14.4907 16.42 14.3 16.488 14.2867 16.488C14.2587 16.488 14.2307 16.5133 14.7307 16.0533C16.0107 14.876 17.14 13.5786 17.984 12.3173L18.1547 12.0613ZM17.1427 12.3146C17.1547 12.3266 16.4867 13.2613 16.0907 13.7893C15.616 14.42 14.7707 15.476 14.1893 16.1626C14.0409 16.3437 13.887 16.5202 13.728 16.692C13.7147 16.696 13.708 16.6253 13.7067 16.5146C13.7067 15.928 13.5573 15.3013 13.296 14.7706C13.1853 14.5466 13.1667 14.4933 13.1893 14.472C13.28 14.3893 14.692 13.584 15.5813 13.108C16.1933 12.78 17.132 12.3026 17.1427 12.3146ZM11.0227 13.8146C11.4101 14.0003 11.7737 14.2322 12.1053 14.5053C12.116 14.512 11.9893 14.616 11.8253 14.7346C11.3653 15.0666 10.6653 15.5933 10.2613 15.916C9.83467 16.256 9.82 16.2666 9.868 16.192C10.188 15.7026 10.348 15.4266 10.516 15.072C10.6667 14.7573 10.8147 14.384 10.9213 14.0586C10.9433 13.9727 10.9779 13.8905 11.024 13.8146H11.0227ZM12.6533 15.0946C12.676 15.0906 12.7067 15.132 12.8387 15.328C13.1147 15.7413 13.3267 16.2906 13.3813 16.7386L13.392 16.836L12.7293 17.092C11.5427 17.5533 10.448 18.008 9.708 18.3453C9.50133 18.4413 9.13733 18.6146 8.89867 18.7346C8.66 18.8546 8.46533 18.948 8.46533 18.9426C8.46533 18.9373 8.61467 18.824 8.79867 18.692C10.248 17.6386 11.4987 16.4866 12.4413 15.3333C12.5413 15.2106 12.6333 15.104 12.6453 15.096C12.6478 15.0946 12.6505 15.0936 12.6533 15.0933V15.0946ZM11.9013 15.2813C11.9213 15.3 11.3667 15.9266 10.9933 16.308C10.06 17.2613 9.132 18.008 7.98533 18.736C7.84133 18.828 7.71067 18.9093 7.692 18.92C7.66133 18.9386 7.70267 18.8906 8.20667 18.3413C8.524 17.996 8.76667 17.7093 9.044 17.3506C9.22533 17.1146 9.26 17.0813 9.52667 16.8893C10.2427 16.372 11.8827 15.2613 11.9013 15.28V15.2813ZM13.2333 -3.26655e-05C13.1267 -0.013366 11.4053 0.606634 10.3 1.05463C8.80267 1.66397 7.63867 2.24663 6.92133 2.75063C6.65467 2.9373 6.31867 3.27463 6.27067 3.40397C6.25175 3.45656 6.24227 3.51208 6.24267 3.56797L6.89333 4.1813L8.43733 4.67463L12.116 5.3333L16.32 6.05597L16.3627 5.69597L16.3253 5.6893L15.772 5.6013L15.6587 5.40397C15.0872 4.39582 14.5635 3.36135 14.0893 2.30397C13.8126 1.66849 13.5766 1.01606 13.3827 0.350634C13.292 0.026634 13.2827 0.006634 13.2333 -3.26655e-05ZM13.152 0.247967H13.1587C13.1627 0.251967 13.1813 0.387967 13.2013 0.547967C13.284 1.2253 13.436 1.8813 13.6733 2.58797C13.852 3.1213 13.8547 3.09063 13.6413 3.03063C13.148 2.8933 10.932 2.5133 9.32933 2.29063C9.1702 2.27034 9.0115 2.24678 8.85333 2.21997C8.83333 2.19997 10.0093 1.58397 10.5307 1.33997C11.1987 1.03063 13.02 0.273301 13.152 0.247967ZM8.48267 2.41863L8.67067 2.48263C9.7 2.83197 12.2787 3.3253 13.704 3.44263C13.864 3.45597 14 3.47063 14.004 3.47463C14.008 3.47863 13.8707 3.55197 13.7 3.6373C13.0133 3.9813 12.256 4.4013 11.732 4.7293C11.5787 4.8253 11.4387 4.90263 11.4187 4.9013C11.3429 4.89064 11.2673 4.87864 11.192 4.8653L11 4.83463L10.5133 4.3613C9.65867 3.53463 8.992 2.89463 8.73333 2.65463L8.48267 2.41863ZM8.292 2.57063L8.97333 3.4213C9.34933 3.88797 9.72533 4.3533 9.808 4.4533C9.892 4.5533 9.956 4.6373 9.952 4.63997C9.93333 4.65463 8.96533 4.46663 8.452 4.34797C8.09073 4.27118 7.73342 4.17685 7.38133 4.0653L7.11467 3.97997L7.116 3.91463C7.12 3.58797 7.532 3.1053 8.23067 2.6133L8.292 2.57063ZM14.0947 3.7293C14.1147 3.73063 14.1373 3.77197 14.1973 3.90397C14.3627 4.26663 14.8773 5.24797 15.0013 5.4373C15.0413 5.49997 15.108 5.50397 14.424 5.3933C12.784 5.1293 12.252 5.03997 12.252 5.0293C12.2854 5.00032 12.3226 4.97609 12.3627 4.9573C12.8858 4.66374 13.38 4.32133 13.8387 3.93463L14.072 3.73863C14.08 3.73197 14.088 3.72797 14.0947 3.7293ZM19.84 14.94L13.4293 17.0306L7.856 19.492L6.296 19.9053C5.89867 20.2813 5.47867 20.6626 5.032 21.052C4.53867 21.48 4.07733 21.868 3.72533 22.148C3.26478 22.5289 2.8395 22.9506 2.45467 23.408C2.012 23.96 1.66533 24.5466 1.516 24.9986C1.24933 25.812 1.37867 26.636 1.896 27.396C2.556 28.3666 3.86933 29.3533 5.396 30.0253C6.176 30.3666 7.48933 30.8093 8.476 31.0573C10.12 31.4733 13.2947 31.924 15.044 31.9906C15.3987 32.004 15.8707 32.004 15.8933 31.988C15.9307 31.9626 16.204 31.448 16.52 30.8013C17.5947 28.6066 18.372 26.548 18.7907 24.7906C19.044 23.7253 19.2413 22.3066 19.3693 20.624C19.4053 20.152 19.4187 18.58 19.3907 18.0453C19.3574 17.2827 19.2759 16.5229 19.1467 15.7706C19.1298 15.7054 19.1243 15.6377 19.1307 15.5706C19.1493 15.5573 19.2093 15.5373 19.9973 15.308L19.84 14.94ZM18.3733 15.8C18.4333 15.8 18.5867 17.2853 18.628 18.2266C18.636 18.428 18.6347 18.556 18.6227 18.556C18.5853 18.556 17.8027 18.096 17.2467 17.748C16.722 17.4175 16.2054 17.0742 15.6973 16.7186C15.6507 16.6813 15.656 16.68 16.052 16.544C16.7253 16.312 18.324 15.8 18.3747 15.8H18.3733ZM15.1093 16.8706C15.1493 16.8706 15.2627 16.9333 15.5293 17.1C16.5293 17.7266 17.884 18.48 18.4627 18.7333C18.644 18.8133 18.664 18.7813 18.2493 19.0626C17.3667 19.6626 16.268 20.252 14.92 20.852C14.7744 20.9186 14.6273 20.9817 14.4787 21.0413C14.4885 20.9507 14.5077 20.8613 14.536 20.7746C14.8627 19.568 15.0467 18.348 15.052 17.3693C15.0547 16.8866 15.0547 16.884 15.1013 16.872H15.1093V16.8706ZM14.4373 17.128C14.4653 17.1573 14.4453 18.24 14.4107 18.536C14.3091 19.3693 14.1224 20.1901 13.8533 20.9853C13.8347 21.008 13.172 20.3613 12.952 20.1053C12.6036 19.7102 12.3041 19.2747 12.06 18.808C11.9507 18.592 11.7747 18.1626 11.7907 18.1506C11.8653 18.0973 14.4187 17.1106 14.4373 17.128ZM11.2707 18.376C11.276 18.376 11.2813 18.3773 11.284 18.3813C11.3136 18.4374 11.3385 18.4958 11.3587 18.556C11.5133 18.976 11.86 19.5986 12.1613 19.996C12.5562 20.5188 13.0113 20.9932 13.5173 21.4093C13.548 21.436 13.5573 21.4306 12.768 21.7293C11.7575 22.1103 10.7376 22.466 9.70933 22.796C9.27333 22.9373 8.904 23.056 8.88933 23.0626C8.84533 23.0773 8.85867 23.0506 8.98667 22.852C9.556 21.964 10.4173 20.2253 10.9 18.996C10.9827 18.7826 11.0627 18.5693 11.0773 18.5213C11.0973 18.452 11.1187 18.428 11.184 18.3986C11.2108 18.3846 11.2404 18.3768 11.2707 18.376ZM10.3 18.776C10.3133 18.788 10.068 19.3066 9.82533 19.7773C9.35733 20.692 8.84 21.592 8.15467 22.6906L7.912 23.0746C7.888 23.1106 7.87733 23.0986 7.80267 22.9493C7.62835 22.5935 7.50278 22.2159 7.42933 21.8266C7.36077 21.347 7.36977 20.8594 7.456 20.3826C7.51867 20.08 7.516 20.0866 7.65867 20.0146C8.27467 19.6986 10.28 18.7586 10.3 18.776ZM18.6573 19.116V19.3213C18.6436 20.6577 18.5299 21.9912 18.3173 23.3106C17.4381 23.0569 16.5895 22.7072 15.7867 22.268C15.3147 22.0093 14.6333 21.592 14.6533 21.572C14.6573 21.5666 14.8587 21.4613 15.0987 21.336C16.0507 20.8426 16.9587 20.3093 17.7493 19.7813C18.0453 19.584 18.4893 19.2626 18.588 19.176L18.6573 19.116ZM6.64133 20.5466C6.66133 20.5466 6.656 20.584 6.62533 20.7613C6.5989 20.9337 6.58066 21.1072 6.57067 21.2813C6.53067 21.9906 6.64667 22.5133 6.99733 23.228C7.096 23.428 7.17333 23.5933 7.16933 23.596C7.13333 23.6266 3.92933 24.564 2.92133 24.84L2.34133 25C2.30533 25.0106 2.30267 25.0026 2.31467 24.92C2.42533 24.2093 2.968 23.2773 3.72533 22.4933C4.22933 21.9733 4.632 21.664 5.31867 21.2733C5.75506 21.023 6.19603 20.7807 6.64133 20.5466ZM14.2 21.9C14.2027 21.8973 14.3213 21.96 14.4627 22.0426C15.4987 22.6413 16.9427 23.2026 18.1733 23.484L18.2853 23.5106L18.132 23.5946C17.4893 23.952 15.3707 24.8333 13.2067 25.644C12.9783 25.7293 12.7503 25.8155 12.5227 25.9026C12.4881 25.9196 12.4513 25.9317 12.4133 25.9386C12.4133 25.9333 12.5027 25.7626 12.612 25.5573C13.22 24.4213 13.8253 23.0413 14.1373 22.084C14.168 21.9866 14.196 21.904 14.2 21.9ZM13.4293 22.1533C13.4062 22.2301 13.3782 22.3054 13.3453 22.3786C12.8535 23.5403 12.292 24.6712 11.664 25.7653C11.5574 25.9608 11.4453 26.1533 11.328 26.3426C11.3213 26.3426 11.176 26.2546 11.0027 26.1493C9.976 25.52 9.06667 24.7466 8.46933 23.9933L8.384 23.8866L8.82667 23.7653C10.2777 23.3772 11.6991 22.8857 13.08 22.2946C13.2693 22.2146 13.4267 22.1493 13.4293 22.1533ZM18.216 23.824C18.2173 23.824 18.2187 23.8253 18.2187 23.828C18.2187 23.9346 17.9747 24.932 17.7707 25.6546C17.6 26.2586 17.456 26.732 17.1907 27.5706C17.123 27.7969 17.0483 28.021 16.9667 28.2426C15.598 28.0087 14.2575 27.6329 12.9667 27.1213C12.6773 27.008 12.393 26.8822 12.1147 26.744C12.1067 26.7346 12.3987 26.5973 12.7627 26.4373C14.9693 25.476 17.2547 24.38 18.036 23.9093C18.0906 23.8706 18.1515 23.8417 18.216 23.824ZM7.16667 24.2013C7.17867 24.2133 6.56133 25.096 5.7 26.3026L4.91733 27.4C4.788 27.5853 4.59067 27.8773 4.47867 28.0506L4.27467 28.3653L4.05867 28.1826C3.804 27.9693 3.35867 27.5146 3.156 27.2626C2.74 26.744 2.45867 26.1986 2.34667 25.6973C2.296 25.4653 2.29333 25.348 2.34267 25.3333C3.20107 25.1262 4.06064 24.924 4.92133 24.7266L6.65467 24.32C6.93333 24.2533 7.164 24.2 7.16667 24.2013ZM7.78667 24.4386L7.94267 24.6133C8.5942 25.353 9.36262 25.9809 10.2173 26.472C10.3707 26.56 10.4867 26.6373 10.4773 26.6426C8.55846 27.3383 6.63395 28.0183 4.704 28.6826C4.67094 28.6629 4.6389 28.6416 4.608 28.6186L4.51867 28.5546L4.65867 28.352C5.112 27.6946 5.68267 26.972 6.932 25.4693L7.78667 24.4386ZM11.6533 27.2026C11.6573 27.1986 11.8733 27.2746 12.136 27.3733C12.7667 27.6093 13.2613 27.7626 13.932 27.9306C14.7547 28.1373 15.9453 28.344 16.6493 28.4026C16.756 28.4106 16.812 28.424 16.796 28.4346C16.7627 28.456 16.0493 28.6933 15.5253 28.8586C13.4706 29.4837 11.4101 30.0895 9.344 30.676C9.29733 30.6853 9.13467 30.6426 9.13467 30.6226C9.13467 30.6106 9.25067 30.464 9.392 30.2946C10.097 29.4504 10.7541 28.5672 11.36 27.6493C11.4573 27.5001 11.555 27.3512 11.6533 27.2026ZM10.7973 27.2266C10.804 27.2333 10.46 27.784 9.856 28.736C9.6 29.1373 9.31067 29.596 9.212 29.752C9.112 29.9093 8.96667 30.1493 8.88933 30.2853L8.74667 30.532L8.67467 30.5133C8.50133 30.4666 7.276 30.0333 6.95333 29.9053C6.552 29.7453 6.13333 29.5533 5.82533 29.3866C5.44 29.1786 4.952 28.8693 4.98933 28.8573L6.46267 28.4546C8.58533 27.876 9.76 27.544 10.5293 27.3026C10.6747 27.2586 10.7947 27.224 10.796 27.2266H10.7973ZM16.828 28.6413H16.836C16.856 28.692 16.0693 30.868 15.7827 31.5586C15.7173 31.7133 15.6947 31.752 15.66 31.7493C15.022 31.6687 14.385 31.5798 13.7493 31.4826C12.5413 31.2986 10.5187 30.9453 10.008 30.8293L9.88933 30.8026L10.6133 30.64C12.1653 30.2906 12.9107 30.1026 13.6667 29.8706C14.6411 29.5707 15.5936 29.2036 16.5173 28.772C16.668 28.7026 16.7973 28.648 16.828 28.6413Z" fill="white"/>
</g>
<defs>
<clipPath id="clip0">
<rect width="32" height="32" fill="white"/>
</clipPath>
</defs>
</svg>
