<svg width="42" height="42" viewBox="0 0 42 42" fill="none" xmlns="http://www.w3.org/2000/svg">
<path d="M26.0301 27.6944C27.3138 29.8733 28.9839 31.4749 31.9378 31.4749C34.4192 31.4749 36.0043 30.1857 36.0043 28.4043C36.0043 26.2695 34.3757 25.5134 31.6444 24.2715L30.1473 23.6037C25.8258 21.6898 22.9549 19.2922 22.9549 14.2235C22.9549 9.55439 26.3771 6 31.7253 6C35.5329 6 38.2703 7.37759 40.2429 10.9846L35.5795 14.0973C34.5527 12.1834 33.445 11.4294 31.7253 11.4294C29.9712 11.4294 28.8595 12.5861 28.8595 14.0973C28.8595 15.9649 29.9723 16.721 32.5417 17.8778L34.0388 18.5445C39.1271 20.8128 42 23.1252 42 28.3243C42 33.9293 37.7645 37 32.0764 37C26.5147 37 22.9215 34.2448 21.1634 30.6336L26.0301 27.6944ZM4.87483 28.2339C5.8156 29.969 6.6714 31.436 8.72897 31.436C10.6965 31.436 11.9377 30.6357 11.9377 27.5241V6.35544H17.9263V27.6082C17.9263 34.0545 14.2907 36.9884 8.98389 36.9884C4.18897 36.9884 1.41217 34.4089 0 31.3019L4.87483 28.2339Z" fill="white"/>
</svg>
