<svg width="42" height="42" viewBox="0 0 42 42" fill="none" xmlns="http://www.w3.org/2000/svg">
<rect width="42" height="42" rx="4" fill="#539E43"/>
<g clip-path="url(#clip0)">
<path d="M20.9973 37C20.5693 37 20.1427 36.888 19.768 36.6706L15.8533 34.3546C15.2693 34.028 15.5547 33.912 15.7467 33.844C16.5267 33.5733 16.684 33.5106 17.5173 33.0386C17.604 32.9893 17.7187 33.008 17.808 33.0613L20.816 34.8466C20.9253 34.9066 21.0787 34.9066 21.1787 34.8466L32.9053 28.0786C33.0147 28.016 33.084 27.8906 33.084 27.7613V14.228C33.084 14.096 33.0133 13.972 32.9013 13.9053L21.18 7.14263C21.072 7.07997 20.928 7.07997 20.8187 7.14263L9.1 13.9066C8.98667 13.972 8.91467 14.1 8.91467 14.228V27.7613C8.91467 27.8906 8.98667 28.0133 9.1 28.0746L12.312 29.9306C14.0547 30.8026 15.1227 29.776 15.1227 28.744V15.3826C15.1227 15.1933 15.2747 15.0453 15.464 15.0453H16.9507C17.136 15.0453 17.2907 15.1946 17.2907 15.3826V28.744C17.2907 31.0706 16.024 32.404 13.8187 32.404C13.1413 32.404 12.6067 32.404 11.1173 31.6693L8.04 29.9C7.28 29.4613 6.81067 28.64 6.81067 27.7613V14.228C6.81067 13.3493 7.28134 12.528 8.04 12.0906L19.7667 5.31463C20.5093 4.89463 21.4947 4.89463 22.2307 5.31463L33.956 12.0906C34.716 12.5293 35.188 13.3493 35.188 14.228V27.7613C35.188 28.64 34.716 29.4586 33.956 29.9L22.2307 36.6706C21.8573 36.888 21.432 37 20.9973 37ZM30.4653 23.6573C30.4653 21.124 28.7533 20.4493 25.1493 19.9733C21.508 19.492 21.1373 19.2426 21.1373 18.3906C21.1373 17.6866 21.4507 16.7466 24.148 16.7466C26.5573 16.7466 27.4453 17.2653 27.8107 18.8893C27.8427 19.0426 27.9827 19.1546 28.14 19.1546H29.6613C29.756 19.1546 29.8453 19.1133 29.9093 19.0466C29.9733 18.9746 30.008 18.8826 29.9987 18.7853C29.7627 15.988 27.904 14.684 24.148 14.684C20.804 14.684 18.8093 16.0946 18.8093 18.4613C18.8093 21.028 20.7933 21.7373 24.0027 22.0546C27.8427 22.4306 28.14 22.992 28.14 23.7466C28.14 25.0573 27.088 25.616 24.6173 25.616C21.5147 25.616 20.832 24.8373 20.6027 23.2933C20.576 23.128 20.4347 23.0066 20.2653 23.0066H18.7493C18.5613 23.0066 18.4107 23.156 18.4107 23.344C18.4107 25.32 19.4853 27.6746 24.6173 27.6746C28.3347 27.676 30.4653 26.2133 30.4653 23.6573Z" fill="white"/>
</g>
<defs>
<clipPath id="clip0">
<rect width="32" height="32" fill="white" transform="translate(5 5)"/>
</clipPath>
</defs>
</svg>
