<svg width="42" height="42" viewBox="0 0 42 42" fill="none" xmlns="http://www.w3.org/2000/svg">
<rect width="42" height="42" rx="4" fill="#61DAFB"/>
<path d="M23.9733 21.0053C23.9733 21.7958 23.6594 22.5539 23.1006 23.1129C22.5418 23.672 21.7838 23.9863 20.9933 23.9866C20.2026 23.9866 19.4443 23.6725 18.8852 23.1134C18.3261 22.5543 18.012 21.796 18.012 21.0053C18.012 20.2148 18.3259 19.4567 18.8847 18.8976C19.4436 18.3386 20.2015 18.0243 20.992 18.024C21.7827 18.024 22.541 18.3381 23.1001 18.8972C23.6592 19.4563 23.9733 20.2146 23.9733 21.0053ZM27.504 6.75195C25.7093 6.75195 23.3613 8.03195 20.9867 10.248C18.6133 8.04395 16.264 6.77862 14.4707 6.77862C13.924 6.77862 13.4267 6.90262 12.996 7.14929C11.1627 8.20662 10.752 11.5013 11.6987 15.636C7.64 16.8893 5 18.8933 5 21.0053C5 23.1253 7.65333 25.1346 11.724 26.3786C10.7853 30.5293 11.204 33.8293 13.0413 34.8853C13.468 35.1346 13.9613 35.252 14.5107 35.252C16.304 35.252 18.6533 33.972 21.028 31.7533C23.4013 33.9586 25.7507 35.224 27.544 35.224C28.0907 35.224 28.588 35.104 29.0187 34.8573C30.8507 33.8013 31.2627 30.5066 30.316 26.3706C34.36 25.128 37 23.12 37 21.0053C37 18.8853 34.3467 16.876 30.276 15.6293C31.2147 11.4826 30.796 8.17995 28.9587 7.12262C28.5347 6.87729 28.0413 6.75329 27.5027 6.75195H27.504ZM27.4973 8.20529V8.21329C27.7973 8.21329 28.0387 8.27195 28.2413 8.38262C29.1293 8.89195 29.5147 10.8293 29.2147 13.3213C29.1427 13.9346 29.0253 14.5813 28.8813 15.2413C27.6013 14.9266 26.2067 14.6853 24.7387 14.5293C23.8587 13.3226 22.9453 12.2266 22.0253 11.2666C24.148 9.29329 26.1413 8.21062 27.4987 8.20662L27.4973 8.20529ZM14.4707 8.23195C15.82 8.23195 17.8227 9.30929 19.9507 11.272C19.036 12.232 18.124 13.3213 17.2573 14.528C15.7813 14.684 14.3853 14.9253 13.1067 15.2453C12.9573 14.592 12.8467 13.96 12.768 13.352C12.4613 10.8613 12.84 8.92529 13.72 8.40929C13.9733 8.28929 14.2533 8.23995 14.4707 8.23329V8.23195ZM20.98 12.2986C21.5867 12.9226 22.1933 13.6213 22.7933 14.384C22.2067 14.3573 21.6067 14.3386 21 14.3386C20.3867 14.3386 19.78 14.352 19.1867 14.384C19.7733 13.6213 20.38 12.9226 20.98 12.2973V12.2986ZM21 15.8C21.9867 15.8 22.9693 15.8453 23.936 15.924C24.4773 16.7 25.0053 17.528 25.5133 18.404C26.0093 19.2573 26.46 20.124 26.8707 20.9986C26.46 21.872 26.0093 22.7453 25.52 23.5986C25.0133 24.4786 24.4893 25.316 23.9467 26.092C22.976 26.176 21.992 26.2226 21 26.2226C20.0133 26.2226 19.0307 26.176 18.064 26.0986C17.5227 25.3226 16.9947 24.4933 16.4867 23.6186C15.9907 22.7653 15.54 21.8986 15.1293 21.024C15.5333 20.148 15.9907 19.2733 16.48 18.4186C16.9867 17.5386 17.5107 16.704 18.0533 15.928C19.024 15.8426 20.008 15.7973 21 15.7973V15.8ZM16.1533 16.1386C15.8333 16.6413 15.5133 17.156 15.2147 17.6853C14.9147 18.2053 14.6347 18.728 14.368 19.2506C14.0147 18.376 13.7147 17.504 13.4667 16.6546C14.32 16.4546 15.22 16.2773 16.1533 16.14V16.1386ZM25.8333 16.1386C26.76 16.276 27.6533 16.4453 28.508 16.6546C28.268 17.4973 27.968 18.364 27.628 19.232C27.3613 18.712 27.0813 18.188 26.7747 17.6666C26.4747 17.144 26.1547 16.6346 25.8347 16.1386H25.8333ZM29.9173 17.0386C30.5627 17.2386 31.176 17.4613 31.7507 17.7026C34.06 18.6893 35.5533 19.98 35.5533 21.004C35.5467 22.028 34.0533 23.324 31.744 24.304C31.184 24.544 30.5707 24.76 29.9373 24.9613C29.564 23.684 29.076 22.3533 28.4707 20.988C29.0707 19.632 29.5507 18.308 29.9173 17.036V17.0386ZM12.0573 17.044C12.428 18.324 12.9173 19.6533 13.524 21.0173C12.924 22.3733 12.4413 23.6973 12.076 24.9693C11.4307 24.7693 10.8173 24.5453 10.2493 24.3026C7.94 23.32 6.44667 22.028 6.44667 21.004C6.44667 19.98 7.94 18.6813 10.2493 17.7026C10.8093 17.4626 11.4227 17.2466 12.0573 17.044ZM27.628 22.7506C27.9813 23.6266 28.2813 24.5 28.5293 25.348C27.676 25.5573 26.7747 25.7346 25.8413 25.868C26.1613 25.368 26.4813 24.852 26.7813 24.324C27.0813 23.804 27.3613 23.2733 27.6293 22.7506H27.628ZM14.368 22.7773C14.6347 23.3 14.9147 23.8213 15.2213 24.344C15.528 24.864 15.8413 25.3733 16.1613 25.868C15.2347 25.732 14.3413 25.5613 13.4867 25.3533C13.7267 24.5133 14.028 23.644 14.3667 22.776L14.368 22.7773ZM28.8933 26.76C29.0427 27.4173 29.16 28.0506 29.232 28.6573C29.5387 31.148 29.16 33.084 28.28 33.6013C28.084 33.7213 27.8293 33.772 27.5293 33.772C26.18 33.772 24.1773 32.696 22.0493 30.732C22.964 29.772 23.876 28.684 24.7427 27.4786C26.2187 27.3213 27.6147 27.0786 28.8933 26.7586V26.76ZM13.12 26.7733C14.4 27.0853 15.7947 27.3266 17.2627 27.4826C18.1427 28.6893 19.056 29.7853 19.976 30.744C17.8493 32.7213 15.8533 33.804 14.496 33.804C14.2027 33.7973 13.9547 33.7373 13.7587 33.628C12.8707 33.1213 12.4853 31.1826 12.7853 28.6906C12.8573 28.0773 12.9747 27.432 13.1187 26.7733H13.12ZM19.2 27.6266C19.7867 27.6533 20.3867 27.672 20.9933 27.672C21.6067 27.672 22.2133 27.6586 22.8067 27.6266C22.22 28.3893 21.6133 29.0866 21.0133 29.7133C20.4067 29.0866 19.8 28.3893 19.2 27.6266Z" fill="white"/>
</svg>
