<svg width="42" height="42" viewBox="0 0 42 42" fill="none" xmlns="http://www.w3.org/2000/svg">
<g clip-path="url(#clip0)">
<path fill-rule="evenodd" clip-rule="evenodd" d="M23.737 30.4477V36.4896C24.708 36.9931 25.8565 37.3706 27.1824 37.6224C28.5082 37.8741 29.9056 38 31.3746 38C32.8063 38 34.1663 37.8616 35.4548 37.5846C36.7433 37.3077 37.8731 36.8514 38.8442 36.2157C39.8152 35.5802 40.5839 34.7493 41.1503 33.7235C41.7167 32.6976 42 31.4295 42 29.9191C42 28.824 41.8382 27.8642 41.5145 27.0398C41.1908 26.2154 40.724 25.4822 40.1139 24.8402C39.504 24.1983 38.7726 23.6224 37.9198 23.1126C37.067 22.6028 36.1053 22.1213 35.0347 21.6683C34.2504 21.341 33.547 21.0232 32.9245 20.7148C32.3021 20.4063 31.773 20.0917 31.3372 19.7708C30.9015 19.4498 30.5654 19.1099 30.3289 18.7512C30.0924 18.3924 29.974 17.9865 29.974 17.5333C29.974 17.118 30.0799 16.7435 30.2915 16.4099C30.5032 16.0764 30.802 15.7901 31.1879 15.5509C31.5739 15.3118 32.0468 15.1261 32.607 14.9939C33.1674 14.8617 33.7897 14.7957 34.4745 14.7957C34.9724 14.7957 35.4984 14.8335 36.0523 14.9089C36.6063 14.9845 37.1634 15.1009 37.7238 15.2582C38.284 15.4156 38.8285 15.6139 39.3577 15.853C39.8868 16.0922 40.3754 16.369 40.8235 16.6838V11.0384C39.9148 10.686 38.9219 10.4248 37.8451 10.2549C36.7683 10.085 35.5326 10 34.1384 10C32.7191 10 31.3746 10.1542 30.1048 10.4626C28.835 10.771 27.7177 11.2524 26.7528 11.9069C25.788 12.5615 25.0256 13.3954 24.4654 14.4087C23.9052 15.4219 23.625 16.6333 23.625 18.0431C23.625 19.8431 24.1385 21.3787 25.1656 22.6501C26.1926 23.9213 27.7519 24.9975 29.8434 25.8787C30.665 26.2185 31.4307 26.552 32.1403 26.8793C32.8498 27.2066 33.463 27.5465 33.9795 27.8989C34.4962 28.2513 34.9039 28.6352 35.2028 29.0506C35.5016 29.4659 35.651 29.9379 35.651 30.4667C35.651 30.8569 35.5575 31.2187 35.3708 31.5523C35.1841 31.8859 34.9008 32.1753 34.5211 32.4208C34.1415 32.6662 33.6684 32.8581 33.102 32.9966C32.5354 33.1351 31.8726 33.2043 31.1132 33.2043C29.8184 33.2043 28.5363 32.9746 27.2664 32.5151C25.9966 32.0558 24.8201 31.3667 23.737 30.4477ZM13.6953 15.5616H21.358V10.6034H0V15.5616H7.62515V37.6379H13.6953V15.5616Z" fill="white"/>
</g>
<defs>
<clipPath id="clip0">
<rect width="42" height="42" rx="4" fill="white"/>
</clipPath>
</defs>
</svg>
