<svg width="42" height="42" viewBox="0 0 42 42" fill="none" xmlns="http://www.w3.org/2000/svg">
<rect x="4" y="16" width="36" height="24" fill="#0C0C0C"/>
<path d="M1.96875 0C0.8785 0 0 0.8785 0 1.96875V40.0312C0 41.1215 0.8785 42 1.96875 42H40.0312C41.1215 42 42 41.1215 42 40.0312V1.96875C42 0.8785 41.1215 0 40.0312 0H1.96875ZM32.354 17.0625C33.425 17.0625 34.3735 17.1273 35.2012 17.2568C35.982 17.3737 36.7481 17.5732 37.4867 17.8517V22.1533C37.1322 21.908 36.7555 21.6965 36.3615 21.5215C35.9552 21.3387 35.5358 21.1866 35.1068 21.0665C34.294 20.84 33.4549 20.7223 32.6113 20.7165C32.0863 20.7165 31.6085 20.7655 31.178 20.867C30.7943 20.9491 30.4262 21.092 30.0878 21.2905C29.7903 21.4725 29.5627 21.6912 29.4 21.945C29.2363 22.2008 29.1511 22.4989 29.155 22.8025C29.155 23.1455 29.2477 23.4552 29.428 23.7283C29.61 24.0012 29.869 24.2603 30.2033 24.5053C30.5375 24.7502 30.9435 24.9883 31.4212 25.2227C31.899 25.459 32.4398 25.7023 33.0418 25.9508C33.8643 26.2955 34.6027 26.663 35.2572 27.0497C35.9118 27.4382 36.4735 27.8775 36.9425 28.3675C37.4115 28.8557 37.7685 29.414 38.017 30.0422C38.2655 30.6705 38.3915 31.4002 38.3915 32.235C38.3915 33.3848 38.1728 34.3525 37.7388 35.133C37.3147 35.9028 36.7062 36.5552 35.9678 37.0317C35.1718 37.5364 34.2897 37.89 33.3655 38.0747C32.375 38.2847 31.3302 38.3898 30.233 38.3898C29.1531 38.3945 28.0751 38.2984 27.013 38.1028C26.0941 37.9438 25.203 37.6533 24.367 37.24V32.6375C25.9486 33.9835 27.955 34.7272 30.0317 34.7375C30.6145 34.7375 31.1238 34.685 31.5578 34.58C31.9935 34.475 32.3558 34.328 32.648 34.1425C32.9385 33.9535 33.1555 33.733 33.3008 33.4775C33.4613 33.18 33.5343 32.8432 33.5114 32.5059C33.4885 32.1687 33.3706 31.8448 33.1712 31.5718C32.9112 31.2277 32.5932 30.9316 32.2315 30.6968C31.7829 30.3994 31.3105 30.1395 30.8193 29.9198C30.2369 29.6538 29.6494 29.3994 29.057 29.1567C27.4505 28.4865 26.2535 27.6657 25.4642 26.698C24.6768 25.7302 24.2812 24.5595 24.2812 23.1893C24.2812 22.1147 24.4965 21.1925 24.927 20.4207C25.3575 19.649 25.942 19.0138 26.684 18.515C27.4688 17.9973 28.3401 17.6244 29.2565 17.4142C30.2715 17.175 31.3112 17.0569 32.354 17.0625ZM5.90625 17.3915H22.6415V21.182H16.6355V38.0625H11.8807V21.182H5.90625V17.3915Z" fill="#3178C6"/>
</svg>
