<svg id="Layer_5" enable-background="new 0 0 64 64" height="512" viewBox="0 0 64 64" width="512" style="fill: #fff;" xmlns="http://www.w3.org/2000/svg">
<path d="m58.472 33-7.86-9.554c.24-.431.388-.919.388-1.446 0-1.302-.839-2.402-2-2.816v-6.184h10v-12h-55v12h4.83l-5.707 36.146c-1.225.378-2.123 1.507-2.123 2.854v11h30v-11c0-1.347-.898-2.476-2.123-2.854l-5.707-36.146h23.83v6.184c-1.161.414-2 1.514-2 2.816 0 .527.148 1.015.388 1.446l-7.86 9.554h-4.528v20h30v-20zm-11.472-27.302-3.238-2.698h6.475zm6-2.396v7.396l-4.438-3.698zm-7.562 3.698-4.438 3.698-4.438-3.698 4.438-3.698zm-10.438-1.302-3.238-2.698h6.475zm-1.562 1.302-4.8 4h-1.178c.954-1.063 1.54-2.462 1.54-4s-.586-2.937-1.54-4h1.178zm1.562 1.302 3.238 2.698h-6.475zm12 0 3.238 2.698h-6.475zm10 2.698h-2v-8h2zm-51-8h17c2.206 0 4 1.794 4 4s-1.794 4-4 4h-17zm8.713 16.412-6.052 7.476 1.976-12.512zm-2.617-6.412h7.807l-3.903 4.822zm3.904 8.002 6.971 8.612-6.971 6.972-6.971-6.972zm-8.046 10.365 6.632 6.633-9.119 9.119zm8.046 8.047 9.586 9.586h-19.172zm1.414-1.414 6.632-6.632 2.487 15.752zm-.127-18.588 4.076-5.036 1.976 12.512zm11.713 41.588h-26v-9c0-.551.448-1 1-1h24c.552 0 1 .449 1 1zm20-36.184c.039-.014.081-.022.119-.037l6.763 8.221h-6.882zm-1-3.816c.552 0 1 .449 1 1s-.448 1-1 1-1-.449-1-1 .448-1 1-1zm-1.119 3.779c.038.015.08.023.119.037v8.184h-6.882zm14.119 10.221v2h-26v-2zm-20 16h-2v-8h2zm8 0h-2v-8h2zm8 0h-2v-8h2zm2 0v-10h-6v10h-2v-10h-6v10h-2v-10h-6v10h-2v-12h26v12z"/><path d="m25 53h-18c-1.103 0-2 .897-2 2v2c0 1.103.897 2 2 2h18c1.103 0 2-.897 2-2v-2c0-1.103-.897-2-2-2zm-18 4v-2h18l.001 2z"/><path d="m22 6h2v2h-2z"/><path d="m18 6h2v2h-2z"/><path d="m14 6h2v2h-2z"/></svg>